<svg width="344" height="407" fill="none" xmlns="http://www.w3.org/2000/svg">
  <path
    d="m83.895 197.702-10.74-6.252 2.055-3.536c.622-1.066 1.381-1.868 2.271-2.404a5.236 5.236 0 0 1 2.927-.75c1.056.036 2.127.372 3.227 1.008 1.087.629 1.908 1.403 2.464 2.3.556.905.827 1.879.811 2.922-.016 1.044-.338 2.103-.953 3.17l-2.055 3.535-.007.007Zm-.41-1.785 1.386-2.38c.48-.827.721-1.647.724-2.459a4.215 4.215 0 0 0-.671-2.274c-.453-.708-1.11-1.318-1.992-1.826-.874-.507-1.727-.783-2.565-.813a4.233 4.233 0 0 0-2.308.549c-.706.399-1.29 1.009-1.77 1.83l-1.385 2.38 8.581 4.993ZM92.452 183.865c-.454.711-1.037 1.253-1.75 1.611a4.487 4.487 0 0 1-2.288.488c-.811-.037-1.603-.3-2.361-.787-.752-.481-1.314-1.078-1.685-1.793a4.553 4.553 0 0 1-.521-2.269c.023-.798.272-1.556.738-2.288.467-.732 1.057-1.28 1.758-1.638a4.392 4.392 0 0 1 2.26-.475c.797.045 1.582.314 2.34.794.766.495 1.341 1.099 1.712 1.827.372.728.546 1.484.515 2.283a4.47 4.47 0 0 1-.718 2.247Zm-1.053-.677a2.995 2.995 0 0 0 .497-1.619 3.282 3.282 0 0 0-.417-1.635 3.616 3.616 0 0 0-1.246-1.304 3.546 3.546 0 0 0-1.692-.578 3.234 3.234 0 0 0-1.648.314c-.517.248-.93.625-1.255 1.131a3.049 3.049 0 0 0-.497 1.612 3.338 3.338 0 0 0 .403 1.635c.275.517.686.952 1.226 1.304.54.352 1.113.541 1.706.579a3.269 3.269 0 0 0 1.66-.315c.51-.248.931-.625 1.256-1.131l.007.007ZM97.85 175.553c-.453.664-.99 1.041-1.623 1.133-.633.092-1.302-.103-2.02-.591l-4.196-2.872-.934 1.361-1.032-.704.236-.342c.217-.315.277-.629.2-.956-.076-.327-.275-.592-.59-.809l-.621-.427.703-1.033 1.71 1.172 1.11-1.628 1.031.704-1.11 1.629 4.198 2.872c.246.169.491.284.73.338.239.053.477.031.709-.072.23-.103.455-.309.658-.61.047-.075.108-.164.162-.274.06-.109.108-.198.148-.28l.923.63a3.17 3.17 0 0 1-.195.417c-.081.144-.15.26-.203.342h.007ZM99.548 172.906l-10.043-7.326 4.719-6.474 1.012.739-3.927 5.399 3.493 2.549 3.731-5.126 1.012.738-3.73 5.126 3.52 2.569 3.927-5.4 1.012.739-4.719 6.474-.007-.007ZM105.521 164.769l-9.74-7.73.726-.917 12.725.786-.278.356-8.193-6.502.826-1.048 9.732 7.73-.725.918-12.772-.828.277-.356 8.248 6.544-.826 1.047ZM115.27 152.809l-12.382-4.683.901-1.047 11.127 4.32-.176.205-5.902-10.373.915-1.062 6.425 11.578-.915 1.062h.007ZM168.95 104.995c-.727.494-1.481.825-2.264.979-.783.154-1.56.15-2.331-.016a6.124 6.124 0 0 1-2.185-.959c-.69-.474-1.299-1.092-1.828-1.867a7.105 7.105 0 0 1-1.08-2.375 6.185 6.185 0 0 1-.114-2.394c.119-.784.388-1.509.815-2.193.426-.684 1.002-1.266 1.722-1.76.7-.481 1.407-.785 2.128-.918a5.49 5.49 0 0 1 2.058-.01c.648.127 1.201.35 1.666.668l-.717 1.163a4 4 0 0 0-2.163-.631c-.777.004-1.532.253-2.265.754-.754.515-1.296 1.159-1.64 1.917-.344.759-.456 1.571-.35 2.437.106.866.451 1.723 1.041 2.58.576.843 1.254 1.474 2.025 1.893.772.413 1.57.6 2.401.548.832-.051 1.621-.334 2.375-.85.733-.501 1.241-1.117 1.524-1.834a3.908 3.908 0 0 0 .194-2.239l1.341-.251c.125.538.128 1.131.015 1.78-.112.655-.362 1.291-.747 1.92s-.928 1.184-1.621 1.658ZM169.013 91.988l-.995-1.543 1.053-.68.995 1.543-1.053.68Zm5.731 8.915-4.832-7.528 1.053-.68 4.832 7.528-1.053.68ZM177.924 98.87l-4.71-7.61 1.067-.66.776 1.251-.26-.094a2.35 2.35 0 0 1 .287-1.359c.237-.43.61-.814 1.133-1.137l.482-.303.659 1.068-.666.413c-.55.343-.882.781-1.002 1.327-.12.546.012 1.132.397 1.758l2.897 4.686-1.06.66ZM186.283 94.07c-.761.44-1.53.655-2.314.632a4.37 4.37 0 0 1-2.197-.659c-.683-.42-1.245-1.017-1.691-1.785-.447-.769-.682-1.552-.706-2.35a4.325 4.325 0 0 1 .521-2.226c.371-.684.941-1.253 1.695-1.693a4.047 4.047 0 0 1 1.504-.525 4.433 4.433 0 0 1 1.533.047c.498.107.942.303 1.325.588l-.69 1.074a2.763 2.763 0 0 0-1.468-.498c-.545-.032-1.069.1-1.579.396a2.918 2.918 0 0 0-1.152 1.185 3.099 3.099 0 0 0-.354 1.618c.023.587.203 1.159.533 1.73.323.558.733.993 1.232 1.304.492.311 1.025.48 1.583.497a2.903 2.903 0 0 0 1.607-.41c.509-.295.882-.686 1.118-1.171a2.89 2.89 0 0 0 .286-1.556l1.288-.034c.057.47.004.948-.15 1.44a4.367 4.367 0 0 1-.716 1.36 4.192 4.192 0 0 1-1.208 1.05v-.014ZM191.271 91.012l-6.075-11.082 1.094-.605 6.075 11.082-1.094.605ZM198.264 87.508a4.27 4.27 0 0 1-2.287.495 4.346 4.346 0 0 1-2.184-.76c-.669-.455-1.218-1.08-1.63-1.882-.413-.803-.614-1.6-.597-2.392a4.338 4.338 0 0 1 .617-2.171c.392-.657.948-1.171 1.675-1.543.571-.296 1.136-.455 1.702-.472.558-.023 1.09.07 1.588.266a4.448 4.448 0 0 1 2.478 2.437c.056.13.104.265.152.402l-6.716 3.468-.536-1.04 6.077-3.14-.303.718c-.194-.592-.503-1.048-.94-1.366a2.827 2.827 0 0 0-1.44-.553 2.776 2.776 0 0 0-1.532.314 2.89 2.89 0 0 0-1.174 1.097 2.946 2.946 0 0 0-.429 1.585c.003.58.19 1.178.568 1.784.275.66.666 1.156 1.158 1.495a3.006 3.006 0 0 0 1.597.552 3.07 3.07 0 0 0 1.613-.349c.585-.303.999-.693 1.255-1.172.25-.479.398-.99.429-1.537l1.206.015c.023.437-.043.894-.218 1.365a4.114 4.114 0 0 1-.791 1.327 4.262 4.262 0 0 1-1.351 1.043l.013.014ZM211.514 81.103c-.803.366-1.599.553-2.396.564a5.708 5.708 0 0 1-2.292-.426 6.115 6.115 0 0 1-1.982-1.327c-.595-.584-1.082-1.305-1.468-2.156a7.157 7.157 0 0 1-.652-2.527 6.247 6.247 0 0 1 .309-2.375 5.65 5.65 0 0 1 1.183-2.01c.536-.59 1.208-1.07 2.01-1.436.768-.35 1.524-.525 2.26-.528a5.53 5.53 0 0 1 2.025.352c.615.242 1.12.554 1.517.954l-.915 1.02a4.001 4.001 0 0 0-2.014-1c-.764-.132-1.554-.02-2.363.346-.83.379-1.481.907-1.948 1.598a4.505 4.505 0 0 0-.773 2.336c-.044.867.144 1.773.571 2.72.42.931.976 1.672 1.66 2.215a4.442 4.442 0 0 0 2.266.965c.825.098 1.656-.042 2.485-.421.809-.365 1.42-.88 1.819-1.543.406-.657.6-1.38.583-2.172l1.363-.006c.029.538-.07 1.125-.292 1.747a5.354 5.354 0 0 1-1.068 1.758c-.488.555-1.12 1-1.888 1.352ZM217.921 78.093l-4.865-11.66 1.157-.483 4.864 11.66-1.156.483ZM278.128 60.462l-1.897-12.295 1.321-.204.85 5.527 6.591-1.02-.85-5.527 1.321-.204 1.897 12.295-1.321.204-.85-5.527-6.591 1.02.85 5.527-1.321.204ZM294.042 58.444c-.831.093-1.602-.02-2.312-.35a4.39 4.39 0 0 1-1.771-1.486c-.467-.666-.75-1.442-.849-2.342-.1-.893-.008-1.712.295-2.443a4.297 4.297 0 0 1 1.347-1.807 4.042 4.042 0 0 1 2.109-.842c.64-.071 1.226-.02 1.758.162a3.86 3.86 0 0 1 1.394.82c.397.366.719.787.967 1.27a4.316 4.316 0 0 1 .479 1.894l.002.43-7.505.853-.128-1.159 6.797-.768-.543.568c.031-.62-.101-1.159-.389-1.607a2.885 2.885 0 0 0-1.149-1.032 2.745 2.745 0 0 0-1.542-.252 2.883 2.883 0 0 0-1.482.607c-.435.343-.76.781-.968 1.328-.209.547-.24 1.167-.107 1.87.023.715.21 1.315.546 1.811.343.496.774.856 1.3 1.085a3.13 3.13 0 0 0 1.63.252c.653-.072 1.184-.292 1.584-.649.401-.356.726-.787.948-1.286l1.127.444c-.135.417-.365.82-.69 1.197-.325.377-.733.7-1.208.96a4.497 4.497 0 0 1-1.633.5l-.007-.028ZM300.088 57.625l-.751-8.918 1.247-.108.122 1.466-.185-.204c.176-.437.467-.8.874-1.081.408-.282.911-.448 1.524-.499l.566-.05.108 1.247-.784.066c-.64.057-1.143.298-1.495.73-.352.43-.5 1.011-.442 1.748l.462 5.488-1.247.101.001.014ZM309.809 57.13a4.493 4.493 0 0 1-2.333-.48 4.485 4.485 0 0 1-1.731-1.582c-.446-.687-.688-1.477-.74-2.377-.045-.886.108-1.692.472-2.416a4.475 4.475 0 0 1 1.532-1.747c.659-.446 1.421-.688 2.293-.733.865-.045 1.65.108 2.353.473a4.409 4.409 0 0 1 1.704 1.56c.432.68.675 1.47.72 2.37.052.914-.115 1.734-.486 2.458a4.479 4.479 0 0 1-1.553 1.747 4.314 4.314 0 0 1-2.238.72l.007.006Zm-.067-1.248c.599-.03 1.13-.21 1.599-.54.468-.33.827-.76 1.084-1.294.256-.54.362-1.127.332-1.775a3.574 3.574 0 0 0-.519-1.71 3.195 3.195 0 0 0-1.218-1.153 2.959 2.959 0 0 0-1.651-.36c-.599.03-1.13.21-1.598.539a3.38 3.38 0 0 0-1.092 1.28c-.263.527-.376 1.114-.339 1.761.037.641.21 1.22.526 1.73.316.51.727.897 1.225 1.168.499.27 1.051.397 1.651.36v-.006ZM316.422 56.628l-.229-12.637 1.254-.02.157 8.846-.532-.073 4.93-5.165 1.614-.028-3.437 3.651 3.915 5.288-1.499.027-3.675-4.893.804.05-2.501 2.686.397-1.039.056 3.288-1.254.02ZM328.64 56.755a3.337 3.337 0 0 1-1.692-.47 3.206 3.206 0 0 1-1.192-1.255c-.288-.531-.421-1.144-.41-1.833l.089-5.641 1.254.021-.09 5.491c-.005.478.086.9.272 1.268.185.367.459.652.801.855.348.21.751.31 1.207.322.457.012.865-.086 1.226-.292.36-.2.645-.494.847-.87.21-.383.317-.84.321-1.373l.084-5.327 1.254.022-.142 8.949-1.254-.022.026-1.732.28.073a2.7 2.7 0 0 1-1.105 1.35c-.516.322-1.108.482-1.776.471v-.007ZM49.416 353.341l-12.405.72-.074-1.33 5.579-.326-.386-6.669-5.579.326-.074-1.336 12.405-.719.074 1.336-5.579.326.385 6.669 5.58-.326.074 1.336v-.007ZM48.919 337.282c.01.832-.177 1.59-.569 2.274a4.382 4.382 0 0 1-1.648 1.624c-.707.399-1.51.608-2.41.625-.899.018-1.704-.162-2.4-.527a4.316 4.316 0 0 1-1.67-1.513 4.087 4.087 0 0 1-.637-2.187c-.01-.648.096-1.221.326-1.734.229-.512.547-.943.948-1.314a4.28 4.28 0 0 1 1.352-.838 4.372 4.372 0 0 1 1.927-.302c.136.006.279.026.422.046l.13 7.563-1.164.019-.12-6.847.513.591c-.614-.093-1.158-.009-1.64.239a2.809 2.809 0 0 0-1.134 1.049c-.277.451-.411.95-.402 1.509.003.559.162 1.07.464 1.539.295.47.706.829 1.225 1.093.519.257 1.14.356 1.848.285.708.044 1.328-.082 1.851-.377a3.082 3.082 0 0 0 1.208-1.193 3.078 3.078 0 0 0 .408-1.604c-.01-.655-.176-1.207-.499-1.642a3.683 3.683 0 0 0-1.183-1.065l.547-1.08c.402.168.778.439 1.12.799.343.36.624.795.838 1.299.214.504.325 1.063.335 1.669h.014ZM48.685 331.173l-12.626-.105.008-1.255 12.626.105-.008 1.255ZM48.663 327.435l-8.928-.381.056-1.248 1.697.074-.258.192a2.762 2.762 0 0 1-1.171-1.147 3.059 3.059 0 0 1-.369-1.608c.031-.689.253-1.304.666-1.845a3.18 3.18 0 0 1 1.57-1.119v.348c-.675-.249-1.188-.663-1.525-1.227a3.316 3.316 0 0 1-.465-1.853 3.266 3.266 0 0 1 .504-1.64 3.346 3.346 0 0 1 1.241-1.165 3.22 3.22 0 0 1 1.73-.383l5.799.246-.056 1.248-5.316-.227c-.545-.025-1.008.052-1.395.231a2.207 2.207 0 0 0-.91.755 2.168 2.168 0 0 0-.356 1.14c-.018.423.072.812.258 1.165.192.354.473.639.849.856.376.216.826.337 1.364.355l5.316.228-.055 1.248-5.316-.228c-.546-.024-1.008.053-1.396.232a2.212 2.212 0 0 0-.91.754c-.223.322-.337.704-.355 1.141-.019.437.065.825.257 1.172.193.347.473.632.85.849.375.216.825.337 1.364.361l5.315.228-.055 1.248ZM49.975 306.198l-12.815 3.3.137-1.379 11.584-2.864-.026.266-10.79-5.092.137-1.392 11.91 5.769-.137 1.399v-.007ZM51.218 297.04a3.438 3.438 0 0 1-.525 1.462c-.277.41-.616.719-1.024.925-.408.207-.858.27-1.342.204a2.704 2.704 0 0 1-1.222-.465c-.355-.25-.636-.604-.843-1.053-.206-.456-.325-1.015-.348-1.683l-.112-3.553 1.125.152.104 3.246c.023.654.169 1.145.422 1.464.26.32.595.509 1.004.562.396.052.756-.058 1.075-.333.32-.281.508-.664.574-1.162.08-.607.022-1.153-.178-1.643-.2-.49-.501-.884-.905-1.203a2.93 2.93 0 0 0-1.42-.58l-2.25-.303c-.532-.072-.988.066-1.367.402-.38.343-.617.821-.703 1.436a2.63 2.63 0 0 0 .212 1.479c.213.442.521.795.925 1.052l-.766 1.041a2.895 2.895 0 0 1-.917-.924 4.407 4.407 0 0 1-.572-1.334 4.006 4.006 0 0 1-.081-1.479 3.872 3.872 0 0 1 .612-1.681 2.941 2.941 0 0 1 1.208-1.036c.482-.22 1.02-.291 1.6-.212l6.082.825-.165 1.242-1.766-.238.204-.157c.308.196.575.481.801.842.227.36.392.768.49 1.232.097.456.113.947.047 1.466l.02.007ZM52.003 290.181l-12.465-1.988.2-1.235 12.464 1.988-.199 1.235ZM53.36 283.396a3.35 3.35 0 0 1-.741 1.593 3.17 3.17 0 0 1-1.434.968c-.571.194-1.198.231-1.873.104l-5.544-1.024.226-1.229 5.394.998c.47.086.9.071 1.294-.061a2.12 2.12 0 0 0 .978-.652 2.38 2.38 0 0 0 .513-1.135c.08-.45.057-.866-.08-1.254a2.11 2.11 0 0 0-.72-.979c-.343-.265-.773-.447-1.298-.547l-5.23-.964.225-1.229 8.79 1.623-.225 1.229-1.705-.313.115-.266c.533.311.916.753 1.15 1.318.235.565.292 1.171.173 1.834l-.007-.014ZM55.413 273.252c-.18.812-.538 1.51-1.08 2.078a4.379 4.379 0 0 1-1.984 1.196c-.776.229-1.607.24-2.487.046-.88-.194-1.618-.552-2.213-1.074a4.325 4.325 0 0 1-1.27-1.863 4.134 4.134 0 0 1-.112-2.271c.14-.628.383-1.168.721-1.606a3.993 3.993 0 0 1 1.222-1.056 4.46 4.46 0 0 1 1.51-.505 4.391 4.391 0 0 1 1.581.061c.11.027.232.053.362.094.137.04.266.087.403.141l-1.635 7.387-1.14-.253 1.475-6.684.358.694c-.574-.23-1.126-.282-1.65-.15-.524.126-.972.38-1.345.75a2.71 2.71 0 0 0-.737 1.374c-.12.547-.09 1.078.09 1.603.18.524.495.973.94 1.346.444.373 1.024.609 1.733.708.683.208 1.316.232 1.888.066a3.039 3.039 0 0 0 1.447-.88c.387-.417.643-.91.77-1.463.14-.642.11-1.214-.096-1.711a3.711 3.711 0 0 0-.906-1.312l.786-.918c.356.258.657.604.905 1.039.254.436.426.919.518 1.457a4.41 4.41 0 0 1-.06 1.706h.006ZM57.557 264.308c-.214.833-.613 1.503-1.19 2.024a3.706 3.706 0 0 1-2.06.917l-.223-1.145a3.247 3.247 0 0 0 1.53-.717c.427-.37.711-.821.845-1.361.134-.519.118-.989-.04-1.405-.16-.422-.447-.68-.856-.787-.3-.073-.566-.052-.783.072a1.962 1.962 0 0 0-.563.494 4.24 4.24 0 0 0-.366.54l-.676 1.156c-.432.739-.893 1.232-1.396 1.487a2.21 2.21 0 0 1-1.56.171c-.505-.128-.915-.371-1.223-.731a2.643 2.643 0 0 1-.606-1.273 3.634 3.634 0 0 1 .068-1.548 3.771 3.771 0 0 1 1.089-1.854c.535-.5 1.175-.79 1.917-.861l.217 1.158c-.538.091-1 .305-1.38.634a2.41 2.41 0 0 0-.758 1.245c-.127.485-.098.907.074 1.261.172.354.446.578.828.679.293.073.538.058.749-.045a1.45 1.45 0 0 0 .523-.425 4.54 4.54 0 0 0 .331-.479l.791-1.334c.386-.65.84-1.115 1.377-1.398a2.255 2.255 0 0 1 1.668-.198c.478.12.867.364 1.176.724.308.36.508.802.599 1.32.09.518.06 1.078-.095 1.679h-.007Z"
    fill="#000" />
  <path
    d="M135.185 122.789c-1.177-1.098-1.255-2.931-.174-4.092 1.082-1.16 2.916-1.211 4.094-.113 1.177 1.098 1.255 2.931.173 4.092-1.064 1.176-2.915 1.211-4.093.113Zm-7.017-10.473c-3.857 4.138-4.22 10.276-1.238 14.88.035.032.036.065.07.097a.575.575 0 0 0 .819-.023l3.323-3.566a.58.58 0 0 0 .105-.626c-.932-2.251-.569-4.9 1.187-6.784 2.383-2.556 6.444-2.669 9.038-.25 2.594 2.419 2.766 6.478.383 9.035-1.74 1.867-4.371 2.431-6.683 1.66a.58.58 0 0 0-.616.148l-3.324 3.566a.574.574 0 0 0 .035.818.21.21 0 0 0 .101.063c4.8 2.653 10.897 1.861 14.754-2.277 4.562-4.894 4.235-12.62-.732-17.251-4.949-4.615-12.66-4.385-17.222.51ZM251.294 45.324l-17.406 6.354a2.331 2.331 0 0 0-1.393 2.992l7.201 19.998a2.307 2.307 0 0 0 2.974 1.398l17.406-6.355a2.331 2.331 0 0 0 1.393-2.992l-7.201-19.997a2.307 2.307 0 0 0-2.974-1.398Zm8.962 21.838a1.027 1.027 0 0 1-.619 1.33l-17.406 6.354a1.017 1.017 0 0 1-1.322-.621l-7.201-19.998a1.028 1.028 0 0 1 .619-1.33l17.406-6.354c.546-.2 1.124.073 1.322.621l7.201 19.998Zm-15.628 4.05 1.851-3.435-3.608-1.443 1.757 4.878Zm6.268-13.464c-.661-.31-1.79-.588-3.306-.034-1.638.597-3.182 1.644-4.241 2.514l-2.503-6.95-2.426.885 3.798 10.547 1.413-1.412s2.328-2.299 4.754-3.185c1.213-.442 1.758.118 1.978.727l2.634 7.317 2.426-.886-2.634-7.316c-.006-.205-.489-1.547-1.893-2.207Zm-4.378-2.058 2.426-.885c.631-1.68.716-3.159.393-4.627l-2.426.885c.262 1.491.117 2.993-.393 4.627Z"
    fill="#0066F5" />
  <path fill-rule="evenodd" clip-rule="evenodd"
    d="m38.193 375.719-.362-.325c-.43.48-.818.995-1.16 1.539a7.02 7.02 0 0 0-1.338-.689c-1.532-.6-2.958-.615-3.186-.033-.228.582.83 1.54 2.36 2.141.434.17.859.293 1.25.369a11.158 11.158 0 0 0-.738 5.514c-.346.03-.718.09-1.1.183-1.598.387-2.775 1.194-2.628 1.802.147.607 1.562.786 3.16.398a7.433 7.433 0 0 0 1.013-.321 11.143 11.143 0 0 0 2.967 4.745c-.231.202-.463.433-.688.688-1.087 1.235-1.59 2.572-1.12 2.985.468.413 1.73-.253 2.817-1.488.255-.29.478-.586.664-.874.65.418 1.343.769 2.067 1.046l.174-.454c.323.146.652.277.988.393l.56-1.621c-2.98-1.029-5.38-3.493-6.17-6.762-.814-3.361.273-6.744 2.582-9.028l-1.205-1.219c-.323.319-.626.657-.907 1.011Zm16.953 14.123c-.22.278-.453.545-.699.802l-1.238-1.185c2.18-2.279 3.187-5.569 2.396-8.838-.813-3.362-3.326-5.872-6.423-6.845l.515-1.637c.433.136.856.298 1.268.484l.173-.454c.602.23 1.183.51 1.736.838.218-.396.514-.817.875-1.227 1.088-1.236 2.35-1.902 2.818-1.489.468.414-.033 1.75-1.12 2.985-.309.35-.63.654-.944.901a11.154 11.154 0 0 1 3.177 4.566c.322-.132.682-.25 1.065-.343 1.599-.387 3.014-.209 3.16.399.148.608-1.029 1.414-2.628 1.802a7.442 7.442 0 0 1-1.05.178c.329 1.925.141 3.835-.47 5.579.299.074.611.173.928.297 1.531.6 2.588 1.559 2.36 2.141-.227.582-1.653.567-3.185-.033a7.416 7.416 0 0 1-.99-.473 11.394 11.394 0 0 1-1.36 1.877l-.364-.325Zm-8.501 7.137-.42-1.733 2.345-.568-.507-2.094-2.344.568-.42-1.733 6.586-1.596.419 1.733-2.511.609.506 2.094 2.511-.609.42 1.733-6.585 1.596Zm4.759-9.144-6.585 1.596-.992-4.099 1.431-.347.572 2.366 1.072-.259-.507-2.094 1.458-.353.506 2.094 1.212-.294-.573-2.367 1.414-.342.992 4.099Zm-1.452-5.999-6.585 1.596-.42-1.733 4.847-1.175-.574-2.375 1.738-.422.994 4.109Zm-8.228-5.196 1.79-3.283-3.09-2.092-.19-.783 6.585-1.596.422 1.742-3.38.819 1.988 1.344-1.143 2.112 3.371-.818.422 1.742-6.586 1.596-.189-.783Z"
    fill="#0066F5" />
  <path fill="#0066F5" d="m47.739 232.586 9.664-22.547 22.46 9.698-9.664 22.547z" />
  <path fill-rule="evenodd" clip-rule="evenodd"
    d="m71.461 234.872-5.347-2.309 1.547-3.609.86.372-1.121 2.618 1.37.592 1.06-2.472.862.372-1.06 2.472 1.393.601 1.122-2.618.861.372-1.547 3.609Zm1.859-4.336-5.348-2.309.332-.773 4.54-1.107-3.43-1.482.424-.991 5.348 2.309-.335.78-4.603 1.071 3.497 1.51-.425.992Zm-3.222-7.269 6.16.413.488-1.137-4.538-4.198-.462 1.079 3.521 3.158-4.706-.394-.463 1.079Zm-.752 12.444-.635 1.481 1.486.642.635-1.482-1.486-.641Z"
    fill="#fff" />
  <path
    d="m113.411 367.249-10.39-2.167-.164-1.141 9.348-5.039.161 1.111-2.286 1.199.638 4.41 2.536.512.16 1.111-.003.004Zm-3.74-1.827-.536-3.694-5.382 2.824-.045-.321 5.959 1.188.004.003ZM112.095 357.804l-7.132.772-.109-1 1.385-.147-.032.234a2.244 2.244 0 0 1-1.186-.757 2.494 2.494 0 0 1-.547-1.36 2.675 2.675 0 0 1 .202-1.402c.188-.431.473-.784.85-1.058.381-.278.82-.447 1.328-.499l4.633-.501.109.999-4.245.46c-.434.047-.794.167-1.08.353a1.698 1.698 0 0 0-.631.728 1.822 1.822 0 0 0-.142.99c.042.361.153.679.347.944.195.266.456.465.777.587.323.129.697.167 1.124.121l4.245-.46.108 1-.004-.004ZM111.3 347.754c.049.687-.079 1.298-.389 1.84a2.957 2.957 0 0 1-1.333 1.228l-.46-.811c.42-.24.749-.551.977-.936.231-.389.331-.806.298-1.25-.03-.428-.164-.779-.396-1.059-.231-.281-.514-.407-.854-.383a.835.835 0 0 0-.581.26 1.46 1.46 0 0 0-.306.518 2.933 2.933 0 0 0-.135.507l-.217 1.049c-.14.671-.366 1.169-.683 1.49a1.725 1.725 0 0 1-1.141.527 1.885 1.885 0 0 1-1.122-.238 2.1 2.1 0 0 1-.784-.815 2.826 2.826 0 0 1-.345-1.194 3.024 3.024 0 0 1 .348-1.684c.279-.519.69-.898 1.237-1.15l.462.826a2.225 2.225 0 0 0-.884.836c-.2.351-.284.73-.26 1.14.031.402.153.714.378.941a.98.98 0 0 0 .799.303c.239-.02.424-.096.557-.229a1.16 1.16 0 0 0 .285-.458c.058-.17.099-.319.131-.447l.256-1.214c.126-.591.355-1.066.687-1.416a1.798 1.798 0 0 1 1.218-.579c.393-.031.753.051 1.08.247.326.195.592.475.795.845.203.369.319.803.358 1.301l.024.005ZM110.867 343.499l-7.165.382-.051-1.002 7.166-.383.05 1.003Zm-8.489.452-1.47.079-.051-1.002 1.471-.08.05 1.003ZM110.768 336.872a3.364 3.364 0 0 1-.377 1.676 2.69 2.69 0 0 1-1.171 1.146l-.154-.158 1.607-.04.028 1.005-10.131.263-.023-1.001 4.56-.12-.276.165a3.116 3.116 0 0 1-1.111-1.115c-.277-.47-.426-1.013-.443-1.626a3.45 3.45 0 0 1 .441-1.828 3.534 3.534 0 0 1 1.302-1.293c.554-.323 1.192-.495 1.918-.514.713-.022 1.356.117 1.932.412a3.51 3.51 0 0 1 1.369 1.221c.337.525.52 1.123.533 1.802l-.004.005Zm-1.003.079a2.34 2.34 0 0 0-.394-1.282 2.55 2.55 0 0 0-1.005-.871 2.956 2.956 0 0 0-1.408-.29c-.528.015-.993.136-1.398.367a2.548 2.548 0 0 0-.952.922 2.42 2.42 0 0 0-.331 1.3c.01.482.142.914.397 1.297.254.383.585.679 1.004.898.422.215.889.32 1.405.302.52-.014.981-.138 1.393-.378.408-.234.73-.553.96-.949a2.47 2.47 0 0 0 .329-1.316ZM110.536 331.645l-10.132-.009v-1.004l10.135.004v1.005l-.003.004ZM110.786 325.364c-.02.668-.195 1.269-.538 1.8a3.478 3.478 0 0 1-1.378 1.24c-.576.298-1.23.437-1.952.417-.723-.021-1.358-.188-1.908-.504a3.405 3.405 0 0 1-1.286-1.274 3.26 3.26 0 0 1-.432-1.772 3.27 3.27 0 0 1 .322-1.377c.207-.402.475-.741.805-1.018a3.46 3.46 0 0 1 1.114-.625 3.503 3.503 0 0 1 1.557-.171c.11.01.221.028.337.05l-.162 6.066-.937-.023.148-5.484.388.496c-.489-.094-.928-.051-1.323.132a2.227 2.227 0 0 0-1.321 1.997 2.32 2.32 0 0 0 .317 1.248c.219.383.535.688.947.916.408.225.902.323 1.471.291.567.058 1.068-.021 1.498-.239.43-.217.765-.518 1.007-.912.247-.391.373-.815.382-1.268.013-.527-.097-.969-.338-1.334a3.041 3.041 0 0 0-.91-.894l.478-.843c.317.154.608.377.869.681a3.492 3.492 0 0 1 .839 2.42l.006-.016ZM118.065 274.102l-1.03-.284.142-.515c.131-.483.094-.903-.118-1.252s-.569-.603-1.068-.739l-6.966-1.915.285-1.03 6.966 1.915c.543.15.979.383 1.32.702.337.322.561.701.667 1.148.107.447.093.931-.056 1.455l-.142.515ZM120.68 265.638a4.02 4.02 0 0 1-.856 1.541 3.942 3.942 0 0 1-1.316.969 3.625 3.625 0 0 1-1.511.333l-.061-1.025c.714-.021 1.314-.216 1.797-.581.483-.364.821-.871 1.022-1.521a2.85 2.85 0 0 0 .136-1.142 1.756 1.756 0 0 0-.331-.895 1.443 1.443 0 0 0-.752-.512c-.469-.147-.868-.127-1.205.052-.337.18-.645.481-.928.919l-1.042 1.556c-.403.615-.892 1.031-1.462 1.25-.57.219-1.152.24-1.741.06a2.532 2.532 0 0 1-1.22-.783 2.697 2.697 0 0 1-.599-1.296 3.381 3.381 0 0 1 .117-1.568c.179-.57.442-1.052.789-1.447a3.811 3.811 0 0 1 1.183-.906 3.236 3.236 0 0 1 1.348-.33l.082 1.007c-.623.03-1.15.22-1.57.558-.423.342-.724.801-.905 1.383a2.393 2.393 0 0 0-.107 1.025c.041.319.162.589.352.815.19.227.451.391.774.494.392.121.779.107 1.17-.044.387-.155.741-.461 1.049-.922l.915-1.369c.455-.68.949-1.147 1.487-1.405.535-.254 1.119-.287 1.75-.089.509.158.922.429 1.231.806.305.38.502.836.576 1.369.078.536.027 1.102-.164 1.705l-.008-.007ZM123.816 256.268a4.936 4.936 0 0 1-2.562 2.836 5.019 5.019 0 0 1-1.901.457 5.463 5.463 0 0 1-2.079-.333 5.247 5.247 0 0 1-1.814-1.064 5.006 5.006 0 0 1-1.178-1.559 4.816 4.816 0 0 1-.465-1.853 5.129 5.129 0 0 1 .304-1.963 4.94 4.94 0 0 1 1.02-1.705 4.89 4.89 0 0 1 3.436-1.587 5.273 5.273 0 0 1 2.071.333 5.365 5.365 0 0 1 1.814 1.064c.505.455.896.973 1.171 1.56.278.583.436 1.203.472 1.852a5.044 5.044 0 0 1-.297 1.963l.008-.001Zm-.943-.341a3.85 3.85 0 0 0 .234-1.601 3.712 3.712 0 0 0-.428-1.468 4.15 4.15 0 0 0-.974-1.209 4.36 4.36 0 0 0-1.414-.812 4.368 4.368 0 0 0-1.596-.264 4.162 4.162 0 0 0-1.52.319c-.479.2-.901.488-1.262.865a3.859 3.859 0 0 0-.839 1.387 3.81 3.81 0 0 0-.234 1.601c.041.52.184 1.01.428 1.468.244.458.567.86.974 1.209a4.4 4.4 0 0 0 1.402.809 4.477 4.477 0 0 0 1.609.274 4.161 4.161 0 0 0 1.52-.318 3.718 3.718 0 0 0 1.265-.869c.365-.382.643-.839.837-1.376l-.002-.015ZM126.086 249.693l-9.212-3.816.358-.868 9.995-2.198-.14.336-7.755-3.208.414-.991 9.212 3.816-.358.867-10.04 2.177.14-.336 7.8 3.23-.41.987-.004.004ZM156.497 196.366c-.429.56-.923 1-1.483 1.311a4.568 4.568 0 0 1-1.783.564 4.89 4.89 0 0 1-1.906-.189 5.653 5.653 0 0 1-1.857-.966 5.726 5.726 0 0 1-1.417-1.539 4.927 4.927 0 0 1-.68-1.793 4.49 4.49 0 0 1 .078-1.87c.157-.622.45-1.213.879-1.774.412-.539.878-.952 1.398-1.231a4.437 4.437 0 0 1 1.567-.519 3.572 3.572 0 0 1 1.436.096l-.216 1.05a3.115 3.115 0 0 0-1.84.045c-.592.202-1.107.589-1.553 1.171-.446.582-.701 1.204-.775 1.871-.074.666.04 1.315.336 1.946.295.631.774 1.198 1.432 1.704.65.5 1.325.81 2.013.936a3.51 3.51 0 0 0 1.968-.181c.618-.244 1.154-.657 1.6-1.239a3.69 3.69 0 0 0 .734-1.659 3.232 3.232 0 0 0-.179-1.696c-.207-.541-.569-1.008-1.077-1.396l-.436-.331.675-.087-2.396 3.128-.743-.567 2.75-3.593.659.506a4.55 4.55 0 0 1 1.215 1.372 4.278 4.278 0 0 1 .405 3.34 4.753 4.753 0 0 1-.818 1.607l.014-.017ZM160.226 191.391l-5.555-4.537.637-.78 5.555 4.538-.633.775-.004.004Zm-6.579-5.375-1.14-.929.637-.78 1.14.929-.633.776-.004.004ZM163.997 187c-.414.489-.882.746-1.389.771-.507.024-1.035-.19-1.562-.642l-3.111-2.641-.855 1.012-.765-.646.216-.255c.195-.23.275-.48.24-.745-.035-.265-.171-.498-.4-.693l-.458-.39.647-.765 1.265 1.07 1.023-1.207.761.651-1.023 1.206 3.111 2.641c.185.153.369.264.556.328a.863.863 0 0 0 .572-.001c.195-.062.388-.209.577-.43l.159-.202c.061-.077.104-.148.147-.212l.683.582a3.33 3.33 0 0 1-.186.314c-.073.11-.14.195-.191.26l-.017-.006ZM165.475 185.149l-7.528-6.775.672-.744 3.232 2.91-.191.135c-.227-.444-.3-.907-.227-1.386.072-.48.289-.922.644-1.318a2.7 2.7 0 0 1 1.174-.788 2.614 2.614 0 0 1 2.613.573l3.461 3.113-.672.745-3.171-2.855c-.326-.293-.652-.481-.989-.566a1.73 1.73 0 0 0-.966.024 1.87 1.87 0 0 0-.824.549c-.238.265-.394.56-.462.883-.067.324-.045.648.076.98.116.329.334.635.656.924l3.171 2.855-.672.745.003-.004ZM172.466 177.8a2.692 2.692 0 0 1-1.203.738 2.574 2.574 0 0 1-1.388.011c-.466-.125-.901-.377-1.3-.763l-3.254-3.137.698-.725 3.167 3.055c.276.267.573.446.891.53.318.091.629.086.942-.002.308-.091.595-.268.845-.531a2.01 2.01 0 0 0 .502-.873 1.692 1.692 0 0 0-.047-.972c-.109-.33-.321-.644-.628-.942l-3.071-2.965.699-.724 5.162 4.981-.698.724-1-.965.196-.124c.215.442.277.91.185 1.388a2.576 2.576 0 0 1-.694 1.3l-.004-.004ZM178.601 171.673c-.444.43-.941.714-1.493.849-.552.142-1.1.113-1.638-.088l.014-.22 1.112 1.158-.725.697-7.022-7.301.725-.697 3.163 3.289-.31-.092a3.175 3.175 0 0 1 .073-1.574c.157-.525.464-1.001.905-1.427.49-.47 1.035-.771 1.646-.909a3.521 3.521 0 0 1 1.828.085c.61.189 1.169.548 1.67 1.069.492.515.831 1.082 1 1.705.17.622.18 1.236.02 1.835-.156.603-.483 1.139-.969 1.613l.001.008Zm-.734-.685a2.42 2.42 0 0 0 .683-1.155 2.522 2.522 0 0 0-.034-1.331 2.975 2.975 0 0 0-.732-1.234c-.363-.378-.767-.642-1.212-.785a2.617 2.617 0 0 0-1.322-.082 2.38 2.38 0 0 0-1.184.634 2.465 2.465 0 0 0-.689 1.163c-.113.442-.107.893.013 1.35.123.46.362.872.721 1.247.359.374.763.63 1.215.772a2.62 2.62 0 0 0 1.347.067 2.431 2.431 0 0 0 1.191-.642l.003-.004ZM183.274 167.039l-3.794-9.911.869-.756 9.291 5.126-.848.738-2.247-1.274-3.361 2.93.939 2.409-.849.738Zm-.489-4.132 2.817-2.453-5.285-2.992.244-.212 2.224 5.657ZM192.942 159.038c-.548.446-1.136.706-1.758.787a3.434 3.434 0 0 1-1.824-.257 4 4 0 0 1-1.562-1.206c-.446-.555-.729-1.149-.849-1.773a3.507 3.507 0 0 1 .141-1.828c.212-.593.592-1.109 1.143-1.551a3.25 3.25 0 0 1 1.133-.604 3.455 3.455 0 0 1 1.22-.152 2.71 2.71 0 0 1 1.126.304l-.413.937a2.283 2.283 0 0 0-1.224-.215c-.435.04-.839.216-1.205.512a2.354 2.354 0 0 0-.77 1.079 2.485 2.485 0 0 0-.084 1.322c.089.461.303.895.635 1.304.323.402.704.696 1.135.883.43.187.866.252 1.316.203a2.29 2.29 0 0 0 1.223-.525c.367-.296.617-.656.748-1.069.131-.412.14-.838.035-1.269l1.018-.186c.101.366.123.752.061 1.157a3.533 3.533 0 0 1-.401 1.168c-.206.375-.483.7-.829.978l-.015.001ZM198.746 154.413c-.511.391-1.019.54-1.524.456-.504-.085-.966-.409-1.385-.963l-2.469-3.249-1.055.805-.607-.801.265-.202c.243-.184.372-.41.396-.677.023-.268-.061-.523-.245-.766l-.367-.478.801-.609 1.006 1.319 1.259-.958.607.801-1.259.958 2.469 3.249c.148.193.305.338.468.44a.864.864 0 0 0 .556.125c.204-.02.422-.12.654-.299.057-.045.121-.1.195-.167.074-.067.133-.124.186-.173l.543.715a2.434 2.434 0 0 1-.253.267c-.099.089-.18.165-.244.212l.003-.005ZM200.63 152.91l-4.241-5.786.811-.594 4.24 5.786-.81.594Zm-5.019-6.855-.871-1.19.811-.594.87 1.19-.81.594ZM205.903 149.344a3.515 3.515 0 0 1-1.796.651 3.6 3.6 0 0 1-1.844-.348c-.593-.28-1.091-.716-1.499-1.311-.407-.587-.639-1.202-.694-1.846a3.572 3.572 0 0 1 .315-1.836c.264-.58.685-1.069 1.258-1.467.573-.399 1.174-.621 1.81-.669a3.547 3.547 0 0 1 1.824.347c.578.282 1.076.718 1.489 1.316.416.602.653 1.228.701 1.88a3.647 3.647 0 0 1-.325 1.849 3.522 3.522 0 0 1-1.227 1.437l-.012-.003Zm-.571-.828c.396-.272.687-.622.867-1.044.185-.419.246-.866.194-1.339a2.91 2.91 0 0 0-.519-1.352 2.858 2.858 0 0 0-1.073-.953 2.596 2.596 0 0 0-1.316-.274 2.443 2.443 0 0 0-1.28.447 2.377 2.377 0 0 0-.864 1.04c-.185.418-.25.862-.21 1.333.042.466.208.917.506 1.342.296.428.659.744 1.085.955.43.214.873.306 1.329.284a2.443 2.443 0 0 0 1.28-.447l.001.008ZM210.217 146.255l-3.955-5.98.838-.558.77 1.16-.22.084a2.272 2.272 0 0 1 .125-1.401c.193-.447.508-.819.956-1.113a2.74 2.74 0 0 1 1.339-.469c.464-.031.91.057 1.331.265.422.207.77.524 1.053.95l2.567 3.885-.835.553-2.354-3.562c-.241-.365-.513-.629-.805-.797a1.678 1.678 0 0 0-.937-.225 1.883 1.883 0 0 0-.947.333 1.946 1.946 0 0 0-.68.746 1.73 1.73 0 0 0-.168.962c.033.346.175.696.407 1.054l2.354 3.562-.835.554-.004-.003ZM218.848 141.004c-.59.35-1.198.511-1.821.479a2.947 2.947 0 0 1-1.694-.642l.517-.777c.401.268.824.421 1.279.453.448.033.868-.067 1.25-.295.368-.218.624-.497.772-.826.144-.333.132-.643-.042-.934-.13-.214-.29-.347-.491-.402a1.67 1.67 0 0 0-.601-.042c-.203.028-.374.06-.513.103l-1.035.278c-.664.179-1.207.196-1.632.055a1.748 1.748 0 0 1-.983-.784 1.89 1.89 0 0 1-.289-1.107c.026-.377.148-.734.378-1.068.226-.331.532-.612.918-.844a2.966 2.966 0 0 1 1.665-.441 2.579 2.579 0 0 1 1.58.593l-.531.787a2.168 2.168 0 0 0-1.142-.415 1.944 1.944 0 0 0-1.136.281c-.345.208-.565.46-.67.761a.964.964 0 0 0 .087.85c.122.207.274.341.459.398.182.06.359.074.539.049.177-.021.333-.051.458-.085l1.201-.312c.586-.151 1.107-.158 1.571-.021.46.14.815.414 1.066.828.199.339.287.695.257 1.076a2.19 2.19 0 0 1-.402 1.091c-.24.347-.575.647-1.005.9l-.01.013ZM268.345 118.967l-6.349-8.513 1.065-.316 5.653 7.726-.207.06.494-9.563 1.076-.321-.656 10.606-1.076.321ZM276.54 116.832a3.44 3.44 0 0 1-1.878-.013 3.506 3.506 0 0 1-1.575-.979c-.448-.473-.758-1.06-.941-1.763-.179-.699-.197-1.355-.043-1.973a3.445 3.445 0 0 1 .866-1.589 3.306 3.306 0 0 1 1.584-.91 3.213 3.213 0 0 1 1.413-.069c.442.085.843.248 1.202.49a3.564 3.564 0 0 1 1.445 2.049c.022.087.041.186.062.293.017.111.033.222.043.342l-5.871 1.53-.238-.906 5.312-1.387-.369.51c-.046-.497-.211-.906-.494-1.234a2.256 2.256 0 0 0-1.03-.689 2.203 2.203 0 0 0-1.253-.028 2.343 2.343 0 0 0-1.112.648 2.458 2.458 0 0 0-.62 1.163c-.103.456-.06.957.128 1.496.1.561.313 1.022.639 1.377a2.503 2.503 0 0 0 2.48.733c.51-.134.903-.367 1.187-.7.285-.334.482-.707.605-1.127l.945.224a2.797 2.797 0 0 1-.41 1.03 3.588 3.588 0 0 1-.852.902 3.648 3.648 0 0 1-1.241.582l.016-.002ZM281.262 115.495l-1.605-6.995.978-.224.262 1.149-.171-.136c.093-.373.281-.691.569-.959.289-.267.675-.457 1.153-.567l.443-.103.223.978-.614.143c-.504.117-.872.363-1.108.749-.235.386-.284.863-.152 1.435l.988 4.303-.978.224.012.003ZM288.844 114.012c-.688.139-1.331.098-1.921-.117a3.433 3.433 0 0 1-1.495-1.07c-.408-.497-.684-1.092-.824-1.796-.144-.699-.119-1.356.07-1.967.19-.61.511-1.13.972-1.554.46-.424 1.038-.707 1.727-.846a3.34 3.34 0 0 1 1.283-.01c.418.079.801.221 1.152.429.352.208.639.47.852.791l-.798.639a2.173 2.173 0 0 0-.984-.756 2.245 2.245 0 0 0-1.304-.104 2.364 2.364 0 0 0-1.184.599 2.503 2.503 0 0 0-.689 1.136 2.98 2.98 0 0 0-.045 1.45c.101.505.3.942.596 1.308.296.366.653.628 1.069.789.416.162.86.199 1.324.106.464-.094.85-.291 1.157-.6.307-.308.513-.675.618-1.108l.99.308a2.826 2.826 0 0 1-.485 1.054 3.456 3.456 0 0 1-.893.848 3.33 3.33 0 0 1-1.186.486l-.002-.015ZM296.657 112.6c-.661.105-1.283.045-1.868-.194a3.433 3.433 0 0 1-1.474-1.123 4.05 4.05 0 0 1-.775-1.84c-.118-.714-.066-1.371.141-1.967a3.46 3.46 0 0 1 1.012-1.502 3.304 3.304 0 0 1 1.66-.759 3.19 3.19 0 0 1 1.413.063c.431.125.816.325 1.148.601a3.57 3.57 0 0 1 1.294 2.823l-5.983.976-.146-.925 5.417-.886-.412.477c.001-.495-.127-.924-.378-1.276a2.259 2.259 0 0 0-.959-.779 2.192 2.192 0 0 0-1.243-.146c-.44.071-.827.253-1.167.542a2.41 2.41 0 0 0-.725 1.102c-.143.445-.147.944-.016 1.5.048.575.216 1.05.509 1.428.29.383.653.655 1.081.819.428.164.869.214 1.317.142.519-.085.937-.278 1.248-.583.311-.305.549-.661.709-1.065l.919.309a2.644 2.644 0 0 1-.504.982 3.484 3.484 0 0 1-.933.818 3.508 3.508 0 0 1-1.289.459l.004.004ZM301.487 111.71l-1.365-10.041.993-.136 1.364 10.041-.992.136Z"
    fill="#000" />
  <path fill-rule="evenodd" clip-rule="evenodd"
    d="M124.671 388.773c-1.525-5.22-6.995-8.223-12.219-6.708a9.825 9.825 0 0 0-6.698 12.194c1.525 5.22 6.995 8.223 12.219 6.708a9.825 9.825 0 0 0 6.698-12.194Zm-7.861-.548-5.326 4.198 3.493.341 1.833-4.539Zm-7.124 4.088 7.961-6.39a.934.934 0 0 1 .26-.146.706.706 0 0 1 .878.495c.053.184.023.346-.079.589l-2.519 6.021 4.575.446.413 1.413-11.144-1.247a.654.654 0 0 1-.575-.483.63.63 0 0 1 .23-.698Z"
    fill="#0066F5" />
  <path fill-rule="evenodd" clip-rule="evenodd"
    d="M113.63 298.086c6.547-3.378-.289-8.773-4.802-9.478-5.336-.834-9.174 4.103-9.665 7.2-.787 4.971 2.571 10.353 8.192 11.24 6.248.985 10.568-3.896 11.246-8.174-.293.946-1.495 4.063-8.934 2.935-5.031-.764-6.774-2.749-5.48-5.201.031-.055 1.579-2.681 5.188-2.112 3.593.566 4.255 3.59 4.255 3.59Z"
    fill="url(#a)" />
  <path fill-rule="evenodd" clip-rule="evenodd"
    d="M104.187 296.596c-1.431 2.689.361 6.541 5.054 7.282 7.665 1.208 9.26-4.362 9.369-5.05.788-4.971-2.57-10.353-8.191-11.24-6.248-.985-10.569 3.896-11.247 8.174.024-1.211 2.295-6.185 9.405-5.063 4.636.731 6.545 5.013 5.066 7.37-.031.054-1.579 2.681-5.188 2.112-3.593-.567-4.269-3.585-4.269-3.585h.001Z"
    fill="url(#b)" />
  <path fill-rule="evenodd" clip-rule="evenodd"
    d="M126.705 212.831c-2.789 4.849-1.134 11.028 3.699 13.808 3.866 2.223 8.589 1.591 11.753-1.227.332-.39.156-.706-.08-.842-.209-.121-.76-.43-1.493-.845-.878 2.743-2.872 2.285-2.872 2.285-1.239-.182-1.839.24-1.839.24-1.001.485-.497-.365-.497-.365.569-.842 1.676-.828 1.676-.828 1.787-.013 2.131-1.506 2.194-2.137-.517-.405-.774-.854-.852-1.228-1.341 1.823-3.271 3.438-6.621 1.511-.956-.55-1.539-1.337-1.826-2.255-.273-.035-1.338-.246-2.265-1.417 0 0 .188-.874 2.285-1.898a9.59 9.59 0 0 1 2.528-4.396c-.169-2.328.492-2.93.492-2.93 1.478.213 2.196 1.027 2.364 1.245.934-.208 1.908-.1 2.864.45 3.361 1.934 2.916 4.409 2.012 6.492.448-.158 1.149-.135 1.965.334 1.171.674 2.104 1.225 2.394 1.392.236.136.595.134.766-.363.845-4.153-.987-8.547-4.847-10.768-4.838-2.783-11.012-1.107-13.8 3.742ZM237.108 114.326l16.814 13.499-20.453 7.77 3.639-21.269ZM333.937 97.884c.358.182.647.481.77.852l1.905 7.583c.053.395-.037.791-.269 1.119l-4.923 6.125a1.19 1.19 0 0 1-1.085.501l-7.968.089c-.404-.019-.81-.2-1.098-.476l-5.086-6.013a1.448 1.448 0 0 1-.276-1.113l1.676-7.67c.09-.396.347-.702.7-.868l7.188-3.5c.189-.048.402-.05.592-.053.19-.002.404.02.595.11l7.279 3.314Zm-.297 8.14c.001.024.024.023.048.023a.555.555 0 0 1 .434.484.515.515 0 0 1-.47.33.217.217 0 0 1-.119-.021c-.024-.023-.024-.023-.048-.023-.028 0-.048-.008-.064-.014a.834.834 0 0 1-.224-.087l-.07-.035a.335.335 0 0 1-.143-.045l-.023.001a3.989 3.989 0 0 0-.762-.201h-.024a.274.274 0 0 0-.189.072s.001.023-.023.024l-.19-.022c-.409 1.331-1.319 2.457-2.519 3.191l.074.186s-.024 0-.024.023a.27.27 0 0 0-.02.233c.098.231.219.463.388.67l.001.047a.382.382 0 0 1 .096.115.83.83 0 0 1 .169.23c.024.023.048.046.049.07 0 0 .024-.001.024.023.049.115.05.232.028.348a.387.387 0 0 1-.251.273.432.432 0 0 1-.148.034.533.533 0 0 1-.454-.274c-.024 0-.024-.023-.024-.023a.122.122 0 0 1-.024-.035c-.007-.011-.013-.023-.025-.034a.842.842 0 0 1-.098-.255l-.049-.139-.001-.023c-.074-.255-.196-.486-.318-.718a.366.366 0 0 0-.191-.137c-.001-.023-.001-.023-.024-.023l-.097-.162-.185.059a4.72 4.72 0 0 1-.571.159 4.852 4.852 0 0 1-1.279.177 5.672 5.672 0 0 1-2.068-.349l-.093.187c0 .012.001.018-.002.021-.003.003-.009.003-.021.003a.369.369 0 0 0-.188.141c-.115.234-.231.468-.299.725l-.045.14c-.011.046-.029.087-.046.128-.017.041-.034.082-.046.129-.023.023-.046.047-.046.07-.024 0-.023.023-.023.023a.535.535 0 0 1-.447.285.453.453 0 0 1-.167-.045.474.474 0 0 1-.198-.626c.024 0 .023-.023.023-.023.012-.012.018-.024.024-.035a.104.104 0 0 1 .023-.036c.03-.041.056-.082.08-.119a.637.637 0 0 1 .083-.115c.046-.047.07-.071.093-.117v-.024c.139-.21.278-.445.37-.678a.267.267 0 0 0-.027-.232s-.024 0-.024-.023l.117-.164a3.735 3.735 0 0 1-.646-.412 5.626 5.626 0 0 1-1.982-2.699l-.213.026s0-.023-.024-.023a.276.276 0 0 0-.191-.068l-.023.001a4.214 4.214 0 0 0-.78.218h-.024a.352.352 0 0 0-.142.048 1.523 1.523 0 0 0-.087.034c-.054.022-.113.047-.172.062l-.032-.004c-.029-.005-.063-.011-.063.005 0 .012 0 .017-.003.02-.003.003-.009.003-.02.004a.222.222 0 0 1-.119.024.44.44 0 0 1-.478-.32.453.453 0 0 1 .372-.539.08.08 0 0 1 .026-.022c.005-.002.011-.002.021-.002a.146.146 0 0 0 .063-.015.087.087 0 0 1 .031-.009c.048-.001.095-.007.143-.013a1.12 1.12 0 0 1 .142-.014.307.307 0 0 1 .142-.024c.284-.027.544-.076.804-.149.071-.047.141-.095.164-.165 0 0 .024 0 .023-.023l.19-.049c-.232-1.323.059-2.675.778-3.822.012-.024.024-.041.035-.059a.591.591 0 0 0 .035-.058l-.14-.134c.01-.067-.034-.148-.078-.19-.192-.184-.431-.32-.67-.457l-.143-.068c-.096-.046-.191-.091-.263-.137-.024 0-.072-.046-.072-.046s0-.023-.024-.023a.494.494 0 0 1-.104-.65c.07-.117.188-.165.33-.166a.576.576 0 0 1 .334.112l.024.023a.104.104 0 0 0 .036.023.145.145 0 0 1 .036.023c.036.035.066.069.096.104.03.034.06.069.096.103.007.007.017.014.027.022a.21.21 0 0 1 .069.07c.169.184.385.368.6.528.048.023.096.046.143.045a.15.15 0 0 0 .064-.015.077.077 0 0 1 .031-.009h.024l.143.091a5.666 5.666 0 0 1 2.895-1.66l.122-.022c.238-.042.46-.081.683-.104l.022-.186-.001-.046c.07-.048.093-.118.116-.188-.004-.279-.007-.535-.058-.79v-.023a.3.3 0 0 0-.026-.14 1.134 1.134 0 0 1-.051-.278l-.002-.116a.459.459 0 0 1 .138-.327c.117-.118.259-.189.401-.167.238.02.431.25.41.483l.002.14a1.13 1.13 0 0 0-.022.14 1.127 1.127 0 0 1-.022.14.283.283 0 0 1-.011.07c-.005.023-.011.046-.011.07l.001.022a4.47 4.47 0 0 0-.037.792c.024.07.049.139.121.184v-.023l.026.186a6.16 6.16 0 0 1 3.099 1.174c.096.092.198.184.3.276.102.092.205.184.301.276l.188-.119h.024c.024.023.071.023.095.022a.33.33 0 0 0 .141-.048 3.06 3.06 0 0 0 .586-.518l.027-.022c.023-.018.051-.039.067-.072.047-.07.117-.14.187-.211.024 0 .047-.024.07-.048l.024-.023a.574.574 0 0 1 .33-.12.46.46 0 0 1 .335.159c.168.207.125.487-.087.652a.042.042 0 0 0 .007.019c.005.008.009.013-.006.027a.122.122 0 0 1-.035.024.11.11 0 0 0-.035.024 2.178 2.178 0 0 0-.13.071 2.497 2.497 0 0 1-.129.071l-.142.072a4.265 4.265 0 0 0-.658.472c-.046.047-.069.14-.068.21v.023l-.14.141c.387.578.681 1.225.856 1.898.151.673.208 1.37.122 2.045l.19.044c.025.07.097.139.169.161.261.067.547.11.808.131h.024a.306.306 0 0 0 .142.021 1.19 1.19 0 0 1 .285.02c.048 0 .095-.001.095.022Zm-12.437-4.414-.004-.004v.023a.065.065 0 0 0 .004-.019Zm4.985 4.103.636-.31.157-.676-.458-.553-.711.008-.444.563.175.672.645.296Zm4.596-.401a4.37 4.37 0 0 0-.114-1.464 4.675 4.675 0 0 0-.588-1.365l-1.757 1.601a.373.373 0 0 0-.093.164.38.38 0 0 0 .291.462l2.261.602Zm-3.352-2.311 1.927-1.37a4.507 4.507 0 0 0-2.697-1.226l.174 2.347a.21.21 0 0 0 .073.162c.121.161.359.182.523.087Zm-1.909-2.607-.473.099a4.72 4.72 0 0 0-2.189 1.21l1.987 1.35.042.014c.05.017.092.031.148.03.213-.002.401-.167.398-.376l.087-2.327Zm-1.563 3.692-1.776-1.515a4.808 4.808 0 0 0-.649 2.845l2.291-.677c.095-.024.142-.048.189-.118a.37.37 0 0 0-.055-.535Zm.217 1.998-2.343.421a4.61 4.61 0 0 0 1.857 2.259l.872-2.15a.266.266 0 0 0 .021-.232c-.026-.186-.218-.3-.407-.298Zm2.061 3.372a4.866 4.866 0 0 0 1.019-.128c.165-.048.307-.073.449-.098l-1.166-2.01a1.13 1.13 0 0 0-.192-.16.371.371 0 0 0-.473.098l-1.134 2.082a5.37 5.37 0 0 0 1.497.216Zm2.481-.772a4.471 4.471 0 0 0 1.404-1.411 3.46 3.46 0 0 0 .438-.889l-2.377-.368c-.071.001-.141.025-.212.049a.375.375 0 0 0-.208.444l.955 2.175Z"
    fill="#0066F5" />
  <defs>
    <linearGradient id="a" x1="100.946" y1="303.089" x2="116.823" y2="291.552" gradientUnits="userSpaceOnUse">
      <stop stop-color="#4D4DFF" />
      <stop offset="1" stop-color="#fff" />
    </linearGradient>
    <linearGradient id="b" x1="116.822" y1="291.541" x2="100.946" y2="303.078" gradientUnits="userSpaceOnUse">
      <stop stop-color="#4D4DFF" />
      <stop offset="1" stop-color="#fff" />
    </linearGradient>
  </defs>
</svg>
