<svg width="1717" height="719" fill="none" xmlns="http://www.w3.org/2000/svg">
  <path
    d="m1482.36 49.908.15-21.088 2.06.775-.35 18.997-.4-.143 12.23-14.52 2.08.786-13.73 15.968-2.04-.775ZM1497.69 56.502a6.807 6.807 0 0 1-2.9-2.342 6.89 6.89 0 0 1-1.24-3.469c-.1-1.336.14-2.677.7-3.894a7.933 7.933 0 0 1 2.35-3.133 6.88 6.88 0 0 1 3.29-1.405 6.589 6.589 0 0 1 3.58.536c.87.363 1.65.92 2.28 1.627.57.65 1 1.412 1.26 2.24.25.815.36 1.669.31 2.521a6.74 6.74 0 0 1-.59 2.456c-.07.16-.15.339-.26.538-.11.2-.22.388-.34.587l-10.98-4.85.74-1.705 9.93 4.393-1.2.341c.52-.738.79-1.623.76-2.524a4.53 4.53 0 0 0-.76-2.335 4.277 4.277 0 0 0-1.91-1.585 4.541 4.541 0 0 0-2.52-.358c-.88.117-1.7.482-2.38 1.052a5.324 5.324 0 0 0-1.64 2.478c-.52.889-.76 1.91-.69 2.935.05.914.37 1.793.9 2.536.52.727 1.23 1.3 2.05 1.655.83.402 1.78.535 2.69.38a5.903 5.903 0 0 0 2.32-.983l1.2 1.52c-.56.486-1.2.859-1.9 1.095a6.87 6.87 0 0 1-2.43.342 6.9 6.9 0 0 1-2.62-.65ZM1506.57 60.257l6.28-12.773 1.78.873-1.01 2.102-.09-.43a3.78 3.78 0 0 1 2.07-.755c.86-.026 1.71.174 2.48.578l.81.396-.88 1.794-1.12-.559c-.4-.219-.84-.352-1.29-.391-.46-.04-.91.015-1.34.162a3.73 3.73 0 0 0-2.01 1.985l-3.87 7.871-1.81-.853ZM1519.94 67.555a6.976 6.976 0 0 1-2.76-2.64 6.987 6.987 0 0 1-.9-3.546 7.96 7.96 0 0 1 1.02-3.783 7.898 7.898 0 0 1 2.62-2.89 6.772 6.772 0 0 1 3.44-1.125c1.3-.04 2.57.281 3.7.928.76.407 1.43.959 1.98 1.624.51.632.92 1.35 1.19 2.119.27.736.37 1.522.29 2.302l-1.99-.015a4.593 4.593 0 0 0-.52-2.414 4.422 4.422 0 0 0-1.84-1.823 4.712 4.712 0 0 0-2.56-.609c-.89.055-1.75.35-2.49.852-.8.549-1.46 1.285-1.91 2.145-.48.838-.74 1.781-.76 2.745-.03.895.19 1.78.62 2.564.43.786 1.08 1.43 1.87 1.854.76.436 1.64.634 2.52.569a4.633 4.633 0 0 0 2.35-.893l1.1 1.728c-.61.474-1.32.81-2.07.985-.79.196-1.62.247-2.43.152a6.537 6.537 0 0 1-2.47-.829ZM1533.39 75.465a6.877 6.877 0 0 1-2.54-2.729 7.03 7.03 0 0 1-.74-3.605c.09-1.34.52-2.635 1.25-3.76a7.852 7.852 0 0 1 2.77-2.77 6.855 6.855 0 0 1 3.45-.975c1.23.011 2.43.367 3.47 1.026a6.399 6.399 0 0 1 1.97 1.934c.5.72.83 1.538.98 2.398.15.84.15 1.701-.01 2.54a7.391 7.391 0 0 1-.93 2.352c-.09.15-.21.309-.34.488-.13.179-.27.358-.42.537l-10.2-6.355 1.01-1.583 9.23 5.758-1.24.171a4.191 4.191 0 0 0 1.11-2.402c.08-.83-.06-1.669-.42-2.423a4.374 4.374 0 0 0-1.67-1.832 4.646 4.646 0 0 0-2.45-.718 4.768 4.768 0 0 0-2.51.711 5.376 5.376 0 0 0-2.01 2.225 5.301 5.301 0 0 0-1.1 2.802c-.07.915.12 1.832.54 2.644.42.79 1.04 1.454 1.79 1.923.77.522 1.69.787 2.62.76.85-.041 1.69-.27 2.45-.672l.98 1.667c-.6.402-1.28.68-2 .815-.81.145-1.64.138-2.45-.018a7.046 7.046 0 0 1-2.59-.91ZM1541.68 80.456l11.22-16.677 1.65 1.122-11.22 16.677-1.65-1.122ZM1599.82 131.154l14.91-12.969 1.38 1.6-8.7 7.576-.13-.511 15.03.111 1.74 2.013-12.07-.09 1.21-.911-3.72 14.322-1.67-1.922 2.94-11.488-4.98-.037-4.51 3.917-1.43-1.611ZM1613.61 148.144a5.529 5.529 0 0 1-1.13-2.568c-.13-.925-.01-1.87.36-2.727a5.849 5.849 0 0 1 1.85-2.356l7.01-5.558 1.24 1.559-6.85 5.419c-.55.419-1 .968-1.29 1.6a3.477 3.477 0 0 0-.24 1.858c.11.664.39 1.288.81 1.806.41.543.96.965 1.59 1.222.61.243 1.28.304 1.92.174a4.791 4.791 0 0 0 2-.985l6.64-5.25 1.23 1.569-11.15 8.817-1.23-1.569 2.16-1.704.19.421c-.9.298-1.87.291-2.77-.02a5.02 5.02 0 0 1-2.34-1.708ZM1623.88 161.85a6.575 6.575 0 0 1-1.24-3.179c-.12-1.103.1-2.216.64-3.186l.43.084-2.59 1.86-1.16-1.618 16.31-11.709 1.16 1.618-7.35 5.276.26-.588a6.173 6.173 0 0 1 3.07.603c1.02.49 1.9 1.242 2.54 2.178a6.783 6.783 0 0 1 1.3 3.49 6.902 6.902 0 0 1-.7 3.574 7.753 7.753 0 0 1-2.56 2.981 7.97 7.97 0 0 1-3.63 1.473c-1.23.168-2.47 0-3.61-.486a6.683 6.683 0 0 1-2.87-2.371Zm1.55-1.249a4.724 4.724 0 0 0 2.07 1.675c.84.329 1.74.435 2.62.31a5.805 5.805 0 0 0 2.63-1.091c.8-.55 1.45-1.291 1.88-2.156.41-.796.59-1.685.54-2.576a4.605 4.605 0 0 0-.9-2.496 4.768 4.768 0 0 0-2.09-1.696 5.178 5.178 0 0 0-2.65-.349 5.72 5.72 0 0 0-2.64 1.06 5.77 5.77 0 0 0-1.86 2.166c-.4.815-.58 1.721-.52 2.626.06.914.38 1.791.92 2.527ZM1633.28 175.729a6.808 6.808 0 0 1-1.14-3.548c-.05-1.251.25-2.49.86-3.584a7.716 7.716 0 0 1 2.72-2.87 7.75 7.75 0 0 1 3.68-1.312 6.79 6.79 0 0 1 3.52.636 6.605 6.605 0 0 1 2.7 2.42c.51.789.85 1.683.98 2.617.11.859.05 1.733-.18 2.568a6.91 6.91 0 0 1-1.12 2.272 6.998 6.998 0 0 1-1.83 1.736c-.15.089-.32.198-.52.297-.2.098-.39.207-.61.305l-6.52-10.108 1.56-.988 5.92 9.153-1.18-.398a4.16 4.16 0 0 0 2.01-1.696c.43-.715.66-1.537.66-2.375a4.362 4.362 0 0 0-.73-2.375 4.625 4.625 0 0 0-1.91-1.684c-.8-.387-1.69-.54-2.57-.439-1.01.12-1.95.526-2.73 1.17a5.198 5.198 0 0 0-2.18 2.064 4.829 4.829 0 0 0-.64 2.625c.04.892.31 1.757.8 2.506a4.436 4.436 0 0 0 2.05 1.805c.79.324 1.64.473 2.49.438l.16 1.921c-.73.103-1.47.057-2.18-.136a6.709 6.709 0 0 1-2.23-1.016 6.86 6.86 0 0 1-1.84-2.004ZM1638.67 183.778l12.19-7.319.98 1.717-2 1.195.16-.399a3.61 3.61 0 0 1 2.14.486 4.837 4.837 0 0 1 1.77 1.833l.47.774-1.71.987-.64-1.055a3.195 3.195 0 0 0-.87-1.034 3.18 3.18 0 0 0-1.21-.591 3.65 3.65 0 0 0-1.45.013 3.67 3.67 0 0 0-1.34.576l-7.5 4.505-.99-1.688ZM1643.17 191.341l12.42-6.908.98 1.737-2.4 1.342-.13-.451a4.48 4.48 0 0 1 2.74.47 4.918 4.918 0 0 1 2.05 2.016c.48.823.73 1.761.72 2.715a5.148 5.148 0 0 1-.73 2.594 5.219 5.219 0 0 1-2.01 1.935l-8.01 4.491-.98-1.737 7.39-4.116c.67-.35 1.25-.857 1.69-1.477a3.37 3.37 0 0 0 .59-1.815 3.705 3.705 0 0 0-.5-1.924 3.85 3.85 0 0 0-1.36-1.46 3.387 3.387 0 0 0-1.88-.474c-.75.035-1.49.256-2.14.644l-7.39 4.115-1.05-1.697ZM1653.01 210.474a6.81 6.81 0 0 1-.74-3.655c.1-1.248.53-2.447 1.25-3.471a7.955 7.955 0 0 1 3.01-2.557 7.727 7.727 0 0 1 3.8-.892c1.22.025 2.41.38 3.44 1.025a6.48 6.48 0 0 1 2.41 2.698c.43.841.68 1.768.72 2.715.02.865-.14 1.725-.46 2.527a7 7 0 0 1-1.36 2.139 6.77 6.77 0 0 1-2.01 1.516c-.16.078-.34.167-.54.246-.2.078-.42.157-.64.235l-5.37-10.77 1.66-.827 4.85 9.735-1.13-.498c.87-.24 1.63-.753 2.18-1.464.51-.662.82-1.453.91-2.283a4.483 4.483 0 0 0-.46-2.443 4.747 4.747 0 0 0-1.71-1.893 4.75 4.75 0 0 0-2.51-.708c-1.01.01-2 .308-2.85.858a5.27 5.27 0 0 0-2.39 1.813 4.93 4.93 0 0 0-.92 2.533c-.06.892.12 1.784.52 2.584a4.478 4.478 0 0 0 1.84 2.013c.75.404 1.58.645 2.43.708l-.02 1.93a5.61 5.61 0 0 1-2.16-.376 6.853 6.853 0 0 1-2.08-1.286 7.097 7.097 0 0 1-1.67-2.152ZM1659.62 224.052c-.25-.48-.41-1.01-.44-1.554-.04-.543.04-1.088.24-1.598a4.485 4.485 0 0 1 2.46-2.261l7.35-3.366-1.09-2.398 1.81-.827.27.603c.1.249.25.474.45.658.19.183.43.32.68.4.53.153 1.1.103 1.59-.138l1.08-.492.83 1.806-3 1.367 1.3 2.86-1.81.826-1.3-2.859-7.31 3.396c-.37.182-.71.426-1 .722-.27.27-.44.62-.49.997-.03.485.07.971.29 1.402.06.12.14.271.24.441.1.171.17.322.25.442l-1.62.738a6.998 6.998 0 0 1-.4-.603c-.21-.201-.29-.392-.38-.562ZM1663.68 233.931a6.774 6.774 0 0 1-.48-3.693 6.801 6.801 0 0 1 1.48-3.369 7.716 7.716 0 0 1 3.19-2.336 7.736 7.736 0 0 1 3.86-.632c1.21.111 2.36.548 3.35 1.265a6.56 6.56 0 0 1 2.22 2.856c.37.872.55 1.815.53 2.764a6.358 6.358 0 0 1-.64 2.495 6.944 6.944 0 0 1-1.51 1.989 6.936 6.936 0 0 1-2.11 1.365l-.56.205c-.21.069-.43.137-.65.186l-4.61-11.114 1.71-.717 4.17 10.03-1.1-.578a4.299 4.299 0 0 0 2.29-1.303 4.55 4.55 0 0 0 1.01-2.213c.14-.834.04-1.693-.29-2.472a4.66 4.66 0 0 0-1.58-2.011 4.703 4.703 0 0 0-2.45-.898 5.323 5.323 0 0 0-2.89.658c-.99.291-1.86.862-2.53 1.642a4.816 4.816 0 0 0-1.08 2.471c-.13.882-.02 1.781.33 2.603.32.873.91 1.622 1.69 2.142.72.463 1.53.766 2.37.888l-.18 1.918a5.244 5.244 0 0 1-2.12-.525 6.932 6.932 0 0 1-1.98-1.425 7.146 7.146 0 0 1-1.44-2.191ZM1668.96 247.51a6.346 6.346 0 0 1-.27-3.732 5.865 5.865 0 0 1 1.87-3.066l1.31 1.3c-.64.64-1.1 1.441-1.34 2.32-.23.842-.19 1.735.12 2.551.24.725.7 1.356 1.32 1.799a1.942 1.942 0 0 0 1.84.264c.43-.127.79-.419 1-.813.17-.363.27-.756.29-1.157.02-.333.03-.667 0-1l-.16-2.121a5.926 5.926 0 0 1 .49-3.217 3.461 3.461 0 0 1 1.89-1.626 3.74 3.74 0 0 1 2.25-.153c.76.182 1.45.571 1.99 1.125a5.74 5.74 0 0 1 1.31 2.089c.41 1.09.49 2.275.24 3.412a5.026 5.026 0 0 1-1.72 2.857l-1.34-1.32c.6-.56 1.03-1.283 1.23-2.081.2-.765.15-1.573-.13-2.31a2.82 2.82 0 0 0-1.23-1.59 1.953 1.953 0 0 0-1.69-.142c-.39.123-.73.388-.94.743a2.49 2.49 0 0 0-.3.998 7.06 7.06 0 0 0 0 .92l.17 2.451a5.819 5.819 0 0 1-.53 3.076 3.611 3.611 0 0 1-2.01 1.775c-.7.271-1.46.311-2.18.114a4.257 4.257 0 0 1-1.99-1.175 6.378 6.378 0 0 1-1.49-2.291ZM1687.87 324.945l19.66-1.764 1.09 12.178-1.99.175-.93-10.057-6.83.61.83 9.266-2 .175-.83-9.256-8.85.794-.15-2.121ZM1689 339.894l14.19-.715.09 2.001-14.18.715-.1-2.001Zm16.8-.876 2.91-.148.11 2.001-2.92.148-.1-2.001ZM1689.26 345.825l14.2-.295.05 2.001-2.34.052.34-.277c.68.323 1.25.843 1.63 1.492.42.754.64 1.608.63 2.474l-.01.9-1.99.046.01-1.25c.01-.454-.07-.906-.24-1.328a3.18 3.18 0 0 0-.74-1.119c-.37-.32-.81-.561-1.27-.711a3.692 3.692 0 0 0-1.45-.16l-8.74.186-.08-2.011ZM1688.94 361.051a6.853 6.853 0 0 1 1.07-3.572 6.787 6.787 0 0 1 2.73-2.459c1.2-.6 2.53-.883 3.87-.822 1.32.02 2.62.373 3.78 1.028a6.822 6.822 0 0 1 2.53 2.529c.61 1.071.91 2.294.85 3.526a6.328 6.328 0 0 1-.65 2.735 5.974 5.974 0 0 1-1.59 1.988c-.65.547-1.4.969-2.21 1.244-.8.276-1.64.405-2.48.382l-.6-.005c-.22-.001-.45-.063-.67-.105l.34-11.997 1.85.014-.31 10.887-.77-1.005c.88.198 1.8.106 2.63-.261a4.397 4.397 0 0 0 1.87-1.576c.47-.705.72-1.529.74-2.375a4.563 4.563 0 0 0-.62-2.474 4.701 4.701 0 0 0-1.86-1.824 5.453 5.453 0 0 0-2.92-.591 5.264 5.264 0 0 0-2.99.458c-.83.4-1.52 1.026-2.01 1.805-.47.758-.73 1.63-.76 2.524-.05.93.18 1.854.67 2.645a6.035 6.035 0 0 0 1.8 1.783l-.95 1.673a5.435 5.435 0 0 1-1.72-1.353 6.74 6.74 0 0 1-1.24-2.119 6.99 6.99 0 0 1-.38-2.683ZM1687.93 377.784a6.647 6.647 0 0 1 1.13-3.222 5.314 5.314 0 0 1 2.56-1.981l.27.342-3.17-.283.17-1.999 19.98 1.798-.18 1.999-8.96-.807.58-.265c.86.635 1.54 1.48 1.97 2.454.46 1.042.63 2.184.51 3.314a6.917 6.917 0 0 1-1.29 3.5 7.022 7.022 0 0 1-2.85 2.249 7.733 7.733 0 0 1-3.88.571 7.72 7.72 0 0 1-3.7-1.247 7.14 7.14 0 0 1-2.43-2.728 6.94 6.94 0 0 1-.71-3.695Zm2 .075c-.1.899.07 1.806.48 2.613a5.06 5.06 0 0 0 1.78 1.953c.81.517 1.74.823 2.7.89.96.108 1.93-.029 2.83-.399a4.996 4.996 0 0 0 2.08-1.594c.55-.722.88-1.588.95-2.493.09-.91-.08-1.828-.49-2.644a5.278 5.278 0 0 0-1.77-2.013 5.628 5.628 0 0 0-2.7-.92 5.62 5.62 0 0 0-2.82.419c-.83.359-1.55.93-2.1 1.655a4.744 4.744 0 0 0-.94 2.533ZM1686.29 392.061c.1-.827.39-1.619.85-2.314a4.15 4.15 0 0 1 1.65-1.457c.66-.319 1.4-.425 2.13-.305.71.083 1.4.346 1.98.765a3.994 3.994 0 0 1 1.33 1.69c.34.852.52 1.763.53 2.684l.11 5.65-1.78-.253-.11-5.171a3.941 3.941 0 0 0-.65-2.334 2.41 2.41 0 0 0-1.59-.922 2.066 2.066 0 0 0-.91.073c-.3.091-.57.246-.8.454a2.879 2.879 0 0 0-.93 1.833 5.16 5.16 0 0 0 .25 2.612 4.543 4.543 0 0 0 3.68 2.867l3.56.517c.39.071.79.052 1.17-.057.37-.108.72-.302 1.01-.567a3.603 3.603 0 0 0 1.13-2.272c.13-.802.02-1.623-.32-2.362a3.871 3.871 0 0 0-1.45-1.681l1.23-1.651c.59.379 1.08.885 1.44 1.481.41.655.71 1.374.88 2.126.19.77.22 1.568.11 2.351a6.106 6.106 0 0 1-1.02 2.663 4.569 4.569 0 0 1-1.94 1.625c-.79.352-1.68.463-2.54.321l-9.65-1.401.28-1.998 2.8.401-.32.247a4.036 4.036 0 0 1-1.26-1.349 6.281 6.281 0 0 1-.77-2.005 6.867 6.867 0 0 1-.08-2.261ZM1683.72 407.641c.21-1.257.8-2.42 1.68-3.337a5.877 5.877 0 0 1 3.17-1.666l.47 1.793a5.26 5.26 0 0 0-2.35 1.303c-.63.6-1.05 1.384-1.21 2.24-.16.748-.09 1.529.21 2.232a1.92 1.92 0 0 0 1.44 1.171 1.59 1.59 0 0 0 1.24-.201c.33-.222.62-.505.85-.834.2-.288.37-.591.52-.906l.95-1.903a5.872 5.872 0 0 1 2.07-2.505 3.456 3.456 0 0 1 2.46-.421c.75.127 1.44.481 1.98 1.014.55.553.93 1.249 1.09 2.008.2.811.21 1.654.05 2.471a6.08 6.08 0 0 1-1.54 3.048c-.8.85-1.86 1.4-3 1.558l-.46-1.824c.8-.171 1.53-.568 2.11-1.144.56-.561.94-1.28 1.08-2.062.16-.675.08-1.385-.24-2.002-.14-.26-.34-.485-.58-.66a1.935 1.935 0 0 0-.8-.35c-.4-.1-.82-.046-1.19.152-.31.179-.58.431-.78.734-.18.249-.34.512-.47.786l-1.12 2.192a5.758 5.758 0 0 1-2.01 2.355 3.56 3.56 0 0 1-2.62.49 3.533 3.533 0 0 1-1.99-1.014 4.327 4.327 0 0 1-1.09-2.008 6.353 6.353 0 0 1 .08-2.71ZM1680.63 422.197a6.752 6.752 0 0 1 1.77-3.286 6.82 6.82 0 0 1 3.16-1.857 7.898 7.898 0 0 1 3.99-.02c1.29.278 2.5.882 3.49 1.755.92.81 1.6 1.851 1.98 3.015.38 1.17.43 2.426.13 3.621-.2.925-.61 1.793-1.19 2.541a6.228 6.228 0 0 1-2 1.655 6.88 6.88 0 0 1-2.41.762 6.89 6.89 0 0 1-2.52-.128c-.17-.002-.36-.093-.57-.165a5.53 5.53 0 0 1-.65-.234l2.76-11.72 1.8.434-2.49 10.601-.55-1.114c.82.369 1.74.467 2.61.279a4.45 4.45 0 0 0 2.15-1.174 4.27 4.27 0 0 0 1.21-2.171c.2-.843.17-1.727-.1-2.551a4.875 4.875 0 0 0-1.47-2.16 5.326 5.326 0 0 0-2.74-1.161c-.96-.343-2-.396-2.99-.152-.88.223-1.69.696-2.32 1.363a5.008 5.008 0 0 0-1.25 2.311c-.24.901-.2 1.856.13 2.731.31.795.79 1.515 1.4 2.11l-1.26 1.451a5.432 5.432 0 0 1-1.42-1.681c-.4-.722-.66-1.51-.78-2.326a6.972 6.972 0 0 1 .13-2.729ZM1653.63 498.664l17.56 9.05-2.96 5.798a10.472 10.472 0 0 1-3.42 3.975 8.44 8.44 0 0 1-4.58 1.436 10.92 10.92 0 0 1-5.19-1.339 10.898 10.898 0 0 1-4.1-3.45 8.452 8.452 0 0 1-1.52-4.581c-.04-1.787.39-3.552 1.25-5.121l2.96-5.768Zm.8 2.806-2.02 3.895a7.73 7.73 0 0 0-.95 3.993c.06 1.285.5 2.523 1.26 3.559a8.99 8.99 0 0 0 3.3 2.735 8.81 8.81 0 0 0 4.14 1.03 6.629 6.629 0 0 0 3.62-1.063 7.708 7.708 0 0 0 2.65-3.05l2.02-3.905-14.02-7.194ZM1641.18 521.281a7.14 7.14 0 0 1 2.66-2.69 7.263 7.263 0 0 1 3.61-.973c1.33.001 2.64.356 3.8 1.028a7.628 7.628 0 0 1 2.8 2.73 7.32 7.32 0 0 1 .97 3.567c0 1.305-.36 2.584-1.03 3.703a7.115 7.115 0 0 1-2.67 2.73 6.924 6.924 0 0 1-3.56.913 7.663 7.663 0 0 1-3.77-1.097 7.568 7.568 0 0 1-2.85-2.791 7.076 7.076 0 0 1-.97-3.588 6.89 6.89 0 0 1 1.01-3.532Zm1.72 1.013c-.47.786-.7 1.69-.67 2.605.02.909.29 1.795.78 2.565.5.838 1.22 1.532 2.07 2.016.82.498 1.76.774 2.72.8a5.27 5.27 0 0 0 2.59-.621 4.876 4.876 0 0 0 1.92-1.886c.46-.786.69-1.69.66-2.605a5.173 5.173 0 0 0-.75-2.565 5.548 5.548 0 0 0-2.03-2.015 5.76 5.76 0 0 0-2.76-.791c-.91-.031-1.81.18-2.62.611a4.84 4.84 0 0 0-1.91 1.876v.01ZM1633.18 534.842c.26-.477.61-.893 1.05-1.221.43-.328.92-.56 1.45-.681a4.53 4.53 0 0 1 3.25.814l6.83 4.311 1.4-2.22 1.68 1.013-.35.567a1.784 1.784 0 0 0-.25 1.528c.16.529.51.978.99 1.257l.99.628-1.01 1.692-2.78-1.75-1.66 2.657-1.68-1.012 1.65-2.658-6.83-4.31a3.386 3.386 0 0 0-1.19-.489 1.662 1.662 0 0 0-1.11.162c-.42.234-.77.577-1.01.992-.09.143-.17.292-.24.448-.09.17-.16.329-.22.459l-1.51-.951c.08-.23.17-.453.28-.668.08-.195.17-.385.27-.568ZM1630.64 539.122l16.32 11.121-7.15 10.546-1.65-1.122 5.96-8.795-5.67-3.862-5.66 8.348-1.64-1.123 5.66-8.347-5.72-3.903-5.96 8.786-1.65-1.112 7.16-10.537ZM1621.59 552.345l15.75 11.936-1.11 1.492-20.25-.79.44-.567 13.25 10.098-1.28 1.69-15.74-11.936 1.12-1.481 20.32.84-.43.577-13.35-10.099 1.28-1.76ZM1606.52 571.642l19.75 7.206-1.41 1.69-17.76-6.661.28-.328 9.58 16.4-1.44 1.759-10.44-18.306 1.44-1.76ZM1538.26 632.714a9.577 9.577 0 0 1 3.62-1.493 8.873 8.873 0 0 1 3.7.088c1.24.3 2.41.838 3.45 1.585 1.13.821 2.09 1.846 2.85 3.021.78 1.158 1.34 2.45 1.65 3.812a9.78 9.78 0 0 1 .12 3.811 8.86 8.86 0 0 1-1.35 3.46 9.591 9.591 0 0 1-2.78 2.759 8.696 8.696 0 0 1-3.41 1.405 8.566 8.566 0 0 1-3.27-.024 7.108 7.108 0 0 1-2.62-1.11l1.17-1.831a6.325 6.325 0 0 0 3.41 1.025 6.285 6.285 0 0 0 3.62-1.143 7.265 7.265 0 0 0 2.65-2.98c.56-1.205.78-2.544.63-3.866a9.24 9.24 0 0 0-1.59-4.131 9.409 9.409 0 0 0-3.16-3.023 7.006 7.006 0 0 0-3.81-.929 7.212 7.212 0 0 0-3.78 1.292 6.334 6.334 0 0 0-2.47 2.882 6.272 6.272 0 0 0-.36 3.557l-2.14.364a7.28 7.28 0 0 1 .02-2.829 8.821 8.821 0 0 1 1.24-3.041 8.774 8.774 0 0 1 2.61-2.661ZM1528.97 638.975l7.31 12.214-1.7.987-7.31-12.223 1.7-.978Zm8.66 14.464 1.49 2.511-1.7.987-1.49-2.511 1.7-.987ZM1523.85 642.028l7 12.391-1.73.987-1.15-2.008.4.173c.04.75-.15 1.493-.54 2.136a5.002 5.002 0 0 1-1.88 1.736l-.78.444-.98-1.737 1.08-.612c.4-.206.76-.495 1.05-.847a3.4 3.4 0 0 0 .63-1.201c.2-.974.01-1.987-.53-2.823l-4.3-7.632 1.73-1.007ZM1510.28 649.016a6.976 6.976 0 0 1 3.73-.802 6.86 6.86 0 0 1 3.43 1.245 7.952 7.952 0 0 1 2.53 3.019c.63 1.16.96 2.463.96 3.787a6.845 6.845 0 0 1-1.02 3.492 6.93 6.93 0 0 1-2.84 2.549c-.76.394-1.58.636-2.44.712a7.236 7.236 0 0 1-2.42-.208 5.209 5.209 0 0 1-2.05-1.015l1.18-1.651c.66.517 1.45.835 2.28.916.88.095 1.77-.076 2.55-.491a4.78 4.78 0 0 0 1.94-1.785c.45-.766.69-1.642.69-2.535a5.691 5.691 0 0 0-.7-2.795 5.892 5.892 0 0 0-1.82-2.174 5.012 5.012 0 0 0-2.48-.928 4.601 4.601 0 0 0-2.57.511 4.335 4.335 0 0 0-1.88 1.766 4.583 4.583 0 0 0-.59 2.456l-2.05-.016c-.04-.776.08-1.552.36-2.277a6.9 6.9 0 0 1 1.26-2.1 6.549 6.549 0 0 1 1.95-1.676ZM1502.13 653.366l8.44 18.252-1.8.836-8.44-18.252 1.8-.836ZM1490.73 658.071a6.722 6.722 0 0 1 3.68-.493c1.23.184 2.4.697 3.37 1.485a8.016 8.016 0 0 1 2.33 3.197c.54 1.213.76 2.543.64 3.865a6.955 6.955 0 0 1-1.26 3.371 6.563 6.563 0 0 1-2.84 2.228c-.87.376-1.81.557-2.76.53a6.258 6.258 0 0 1-2.49-.628 7.107 7.107 0 0 1-1.98-1.505 7.172 7.172 0 0 1-1.37-2.12c-.07-.161-.13-.351-.2-.562a5.085 5.085 0 0 1-.19-.661l11.07-4.638.72 1.715-10 4.206.56-1.105c.19.885.65 1.687 1.32 2.289.63.533 1.39.885 2.21 1.016.83.143 1.69.041 2.46-.291a4.69 4.69 0 0 0 2.01-1.595c.52-.72.82-1.569.88-2.454a5.541 5.541 0 0 0-.66-2.905 5.184 5.184 0 0 0-1.65-2.522c-.7-.59-1.55-.967-2.45-1.088a4.98 4.98 0 0 0-2.61.341c-.87.33-1.62.926-2.13 1.704a6.023 6.023 0 0 0-.88 2.383l-1.91-.184c.02-.737.2-1.461.52-2.126a6.72 6.72 0 0 1 1.42-1.989 6.95 6.95 0 0 1 2.19-1.464ZM1473.13 664.741a9.587 9.587 0 0 1 3.88-.531c1.24.086 2.45.435 3.55 1.026a9.52 9.52 0 0 1 2.97 2.402 11.212 11.212 0 0 1 1.97 3.634c.47 1.313.69 2.701.66 4.095a9.973 9.973 0 0 1-.85 3.724 9.173 9.173 0 0 1-2.16 2.984 9.668 9.668 0 0 1-3.4 1.974 8.771 8.771 0 0 1-3.65.503 8.851 8.851 0 0 1-3.15-.863 6.93 6.93 0 0 1-2.26-1.737l1.59-1.478c.81.91 1.87 1.564 3.05 1.883 1.25.332 2.57.265 3.78-.192a7.247 7.247 0 0 0 3.31-2.246 7.136 7.136 0 0 0 1.58-3.588 9.56 9.56 0 0 0-.5-4.404 9.464 9.464 0 0 0-2.3-3.756 6.996 6.996 0 0 0-3.45-1.856 7.332 7.332 0 0 0-3.99.291 6.461 6.461 0 0 0-3.11 2.177 6.436 6.436 0 0 0-1.24 3.35l-2.16-.176c.05-.955.3-1.889.73-2.744a8.729 8.729 0 0 1 1.95-2.626 8.712 8.712 0 0 1 3.2-1.846ZM1462.3 668.571l5.55 19.04-2 .596-5.55-19.041 2-.595ZM1385.86 680.834l.31 19.791-2.13-.015-.13-8.901-10.6.202.14 8.9-2.12-.015-.3-19.802 2.12.016.14 8.901 10.59-.152-.13-8.911 2.11-.014ZM1360.5 680.327c1.27.038 2.49.428 3.54 1.126a6.844 6.844 0 0 1 2.42 2.778c.57 1.209.83 2.546.76 3.885a7.945 7.945 0 0 1-1.07 3.742 6.951 6.951 0 0 1-2.56 2.511c-1.08.597-2.3.876-3.52.804a6.348 6.348 0 0 1-2.72-.69 6.16 6.16 0 0 1-1.98-1.635c-.52-.655-.92-1.4-1.17-2.198a7.084 7.084 0 0 1-.34-2.503v-.6c0-.22.06-.439.12-.669l11.95.519-.08 1.859-10.81-.48 1-.753c-.21.877-.14 1.8.21 2.632.34.763.87 1.42 1.55 1.901.7.482 1.51.752 2.36.778.86.04 1.72-.162 2.48-.582a4.65 4.65 0 0 0 1.83-1.846c.49-.892.7-1.904.63-2.916a5.336 5.336 0 0 0-.4-3.003 4.918 4.918 0 0 0-1.77-2.013 4.921 4.921 0 0 0-2.5-.798 4.462 4.462 0 0 0-2.66.63 5.825 5.825 0 0 0-1.79 1.777l-1.66-1.012a5.44 5.44 0 0 1 1.38-1.71 6.693 6.693 0 0 1 2.13-1.214 7.025 7.025 0 0 1 2.67-.32ZM1350.84 680.075l-1.16 14.201-1.99-.165.2-2.338.23.372a3.763 3.763 0 0 1-1.65 1.467c-.79.345-1.66.473-2.52.372l-.89-.067.16-1.999 1.25.1a3.228 3.228 0 0 0 2.52-.752c.36-.339.64-.746.84-1.196.19-.45.3-.934.31-1.425l.72-8.744 1.98.174ZM1335.52 678.231c1.28.143 2.5.637 3.52 1.426 1 .77 1.78 1.789 2.27 2.957.51 1.244.68 2.602.49 3.933a7.463 7.463 0 0 1-1.41 3.65 7.157 7.157 0 0 1-2.87 2.319c-1.2.516-2.51.693-3.8.511a7.209 7.209 0 0 1-3.54-1.436 6.905 6.905 0 0 1-2.24-2.926 7.688 7.688 0 0 1-.47-3.914 7.519 7.519 0 0 1 1.44-3.719 7.183 7.183 0 0 1 2.91-2.308 6.984 6.984 0 0 1 3.7-.493Zm-.24 1.998c-.9-.123-1.82.016-2.65.401-.81.391-1.5.989-2.01 1.735-.56.79-.91 1.714-1.01 2.682-.14.958-.02 1.934.33 2.833.33.84.88 1.579 1.58 2.141.72.567 1.57.92 2.48 1.019.9.123 1.82-.016 2.65-.401a5.35 5.35 0 0 0 2.01-1.705c.57-.782.92-1.7 1.02-2.662a5.67 5.67 0 0 0-.35-2.853c-.33-.851-.88-1.6-1.59-2.171a4.796 4.796 0 0 0-2.41-1.038l-.05.019ZM1325.09 677.155l-3.34 19.834-1.99-.324 2.33-13.893.82.276-9.2 6.632-2.54-.429 6.43-4.702-4.56-9.433 2.39.367 4.31 8.732-1.24-.319 4.7-3.465-.93 1.513.86-5.164 1.96.375ZM1306.12 673.334a5.31 5.31 0 0 1 2.5 1.249c.69.623 1.2 1.426 1.47 2.321.28.976.31 2.009.08 3l-1.82 8.777-1.99-.405 1.81-8.556c.17-.676.18-1.383.02-2.06a3.463 3.463 0 0 0-.99-1.588 3.911 3.911 0 0 0-1.78-.863 3.8 3.8 0 0 0-1.99.076 3.4 3.4 0 0 0-1.64 1.097 4.625 4.625 0 0 0-.92 1.994l-1.75 8.296-1.99-.414 2.94-13.978 1.99.415-.59 2.805-.42-.203a4.373 4.373 0 0 1 2.13-1.774 4.995 4.995 0 0 1 2.94-.189ZM1225.38 647.328l-7.1 16.307 4.97 2.197-.8 1.824-11.92-5.228.8-1.825 4.97 2.177 7.09-16.307 1.99.855ZM1212.45 641.103a6.807 6.807 0 0 1 2.84 2.401 7.045 7.045 0 0 1 1.16 3.498 7.905 7.905 0 0 1-.8 3.884 7.837 7.837 0 0 1-2.42 3.072 6.88 6.88 0 0 1-3.33 1.325 6.503 6.503 0 0 1-3.55-.616 6.236 6.236 0 0 1-2.24-1.686 6.041 6.041 0 0 1-1.21-2.279 6.52 6.52 0 0 1-.25-2.522c.06-.847.28-1.675.63-2.445l.28-.528.36-.578 10.87 5.081-.79 1.684-9.84-4.623 1.21-.321a4.358 4.358 0 0 0-.82 2.514c.02.834.26 1.648.7 2.355a4.406 4.406 0 0 0 1.88 1.624c.77.38 1.65.525 2.51.418a4.663 4.663 0 0 0 2.41-.982 5.357 5.357 0 0 0 1.7-2.437c.53-.877.8-1.889.77-2.914-.04-.92-.34-1.81-.86-2.567a4.918 4.918 0 0 0-1.98-1.694 4.487 4.487 0 0 0-2.7-.45c-.84.156-1.64.491-2.34.983l-1.16-1.539c.56-.48 1.22-.837 1.93-1.046a6.676 6.676 0 0 1 2.43-.292 6.98 6.98 0 0 1 2.61.68ZM1203.53 637.157l-6.34 12.752-1.77-.893 1.01-2.092.09.431c-.61.45-1.33.709-2.08.744-.87.023-1.72-.18-2.48-.588l-.81-.396.89-1.783 1.12.548a3.276 3.276 0 0 0 2.63.249 3.768 3.768 0 0 0 2.01-1.985l3.88-7.851 1.85.864ZM1195.61 633.158l-6.57 12.651-1.75-.913 1.07-2.082.08.431c-.61.444-1.34.693-2.09.714a4.885 4.885 0 0 1-2.47-.618l-.8-.416.91-1.773 1.11.578c.39.226.83.368 1.28.416.46.048.91.002 1.35-.136a3.63 3.63 0 0 0 1.23-.784c.36-.341.64-.749.84-1.201l4.04-7.79 1.77.923ZM1184.29 626.825c.74.391 1.38.943 1.88 1.613.43.587.7 1.279.78 2.006.07.734-.09 1.472-.45 2.117-.33.621-.8 1.153-1.38 1.549-.61.403-1.32.629-2.05.655a7.033 7.033 0 0 1-2.69-.43l-5.33-1.849.86-1.584 4.87 1.686c.77.323 1.62.393 2.42.198a2.378 2.378 0 0 0 1.4-1.179c.15-.269.24-.569.26-.877.02-.308-.03-.617-.15-.902a2.896 2.896 0 0 0-1.39-1.521 5.092 5.092 0 0 0-2.54-.668c-.81.017-1.6.249-2.29.673a4.608 4.608 0 0 0-1.67 1.787l-1.72 3.177c-.19.339-.31.719-.34 1.11-.03.392.03.785.18 1.149.33.815.95 1.478 1.74 1.863.7.395 1.5.575 2.31.517a4.01 4.01 0 0 0 2.08-.785l1.11 1.729c-.56.42-1.2.706-1.89.836-.75.165-1.53.2-2.29.103a6.336 6.336 0 0 1-2.24-.727 6.03 6.03 0 0 1-2.14-1.856 4.662 4.662 0 0 1-.85-2.386c-.05-.876.16-1.746.6-2.505l4.65-8.596 1.74.953-1.35 2.5-.12-.401a4.182 4.182 0 0 1 1.7-.717 6.01 6.01 0 0 1 2.11-.035c.77.133 1.51.402 2.19.797ZM1173.27 621.074l-6.06 10.644 2.47 1.409-1.01 1.732-2.47-1.408-.63 1.105a4.504 4.504 0 0 1-1.81 1.857c-.7.371-1.5.539-2.29.483a5.248 5.248 0 0 1-2.8-1.031 6.05 6.05 0 0 1-.44-.363l.89-1.564c.13.116.26.218.41.303l.39.233c.63.402 1.38.586 2.13.526.4-.072.76-.24 1.08-.489.31-.249.55-.571.71-.938l.64-1.105-2.98-1.722 1.01-1.732 2.98 1.722 6.06-10.645 1.72.983ZM1160.69 613.341a7.1 7.1 0 0 1 2.65 2.709c.61 1.111.91 2.361.88 3.627a7.58 7.58 0 0 1-1.12 3.791 7.52 7.52 0 0 1-2.76 2.78 7.175 7.175 0 0 1-3.57.973 7.052 7.052 0 0 1-3.67-1.027 7.29 7.29 0 0 1-2.69-2.719 6.977 6.977 0 0 1-.86-3.577 7.625 7.625 0 0 1 1.14-3.771 7.565 7.565 0 0 1 2.81-2.819c1.1-.634 2.34-.97 3.6-.974 1.27.003 2.51.351 3.59 1.007Zm-1.01 1.712a4.822 4.822 0 0 0-2.58-.709 5.06 5.06 0 0 0-2.57.751 5.736 5.736 0 0 0-2.01 2.055 5.554 5.554 0 0 0-.83 2.714c-.03.904.17 1.8.58 2.604a4.783 4.783 0 0 0 1.86 1.944c.77.483 1.67.73 2.58.709a5.25 5.25 0 0 0 2.57-.721 5.437 5.437 0 0 0 2.01-1.985c.51-.832.8-1.779.84-2.754.04-.913-.16-1.82-.58-2.634a4.863 4.863 0 0 0-1.88-1.944l.01-.03ZM1151.44 608.133l-7.48 12.084-1.69-1.012 1.24-1.991-.01.44c-.63.387-1.36.576-2.11.544a4.81 4.81 0 0 1-2.4-.818l-.77-.475 1.01-1.693 1.06.658a3.248 3.248 0 0 0 2.59.499 3.757 3.757 0 0 0 2.22-1.813l4.61-7.456 1.73 1.033ZM1143.91 603.477l-7.75 11.942-1.67-1.082 1.47-2.279.06.511c-.75.473-1.62.71-2.51.681a4.867 4.867 0 0 1-2.49-.808 5.048 5.048 0 0 1-1.98-2.405c-.4-.97-.48-2.039-.26-3.062l.48.284a4.5 4.5 0 0 1-2.91 1.098 5.16 5.16 0 0 1-2.89-.861 5.213 5.213 0 0 1-1.84-2.014 5.312 5.312 0 0 1-.58-2.654c.04-.958.34-1.887.87-2.683l5.04-7.743 1.67 1.082-4.61 7.106a4.729 4.729 0 0 0-.82 2.104 3.47 3.47 0 0 0 .3 1.852c.28.582.71 1.075 1.25 1.419a3.55 3.55 0 0 0 1.81.584c.65.021 1.29-.14 1.85-.467.66-.386 1.2-.928 1.6-1.578l4.61-7.105 1.66 1.092-4.61 7.105a4.858 4.858 0 0 0-.81 2.104c-.08.632.02 1.274.29 1.853.29.578.72 1.069 1.26 1.419.54.36 1.17.565 1.81.593.65.013 1.29-.152 1.85-.476.65-.387 1.2-.929 1.6-1.578l4.61-7.106 1.64 1.072Z"
    fill="#000" />
  <path fill-rule="evenodd" clip-rule="evenodd"
    d="M1596.12 98.195c.24.697.23 1.457-.08 2.1l-7.18 12.362a2.87 2.87 0 0 1-1.79 1.121l-14.25 1.729c-.79.133-1.55-.129-2.06-.73l-10.54-10.065c-.5-.54-.8-1.296-.83-2.026l1.02-14.37c.1-.731.47-1.375 1.06-1.81l11.98-7.9a2.295 2.295 0 0 1 2.03-.242l13.87 4.602c.3.178.59.448.84.687.25.24.5.54.64.903l5.29 13.64Zm-10.78 10.283c-.03.031.01.06.04.09.22.332.24.818-.05 1.187a.941.941 0 0 1-1.04-.167.488.488 0 0 1-.13-.181c0-.06 0-.06-.03-.09-.04-.036-.05-.071-.07-.1-.01-.021-.01-.039-.03-.051a1.477 1.477 0 0 1-.15-.349c-.01-.043-.03-.088-.05-.135-.06-.06-.09-.15-.13-.241l-.03-.03a6.784 6.784 0 0 0-.74-1.236l-.03-.03a.493.493 0 0 0-.34-.147s-.03.03-.06.001l-.22-.271c-2.23 1.219-4.86 1.531-7.37.959l-.14.337s-.03-.03-.06.001a.473.473 0 0 0-.32.278c-.17.429-.3.887-.35 1.374l-.06.062c.01.121.01.182-.02.274.01.182-.02.335-.07.518 0 .061 0 .121-.03.152 0 0 .04.03.01.061a1.11 1.11 0 0 1-.41.493c-.18.124-.42.127-.61.069-.02-.012-.05-.023-.07-.034a.807.807 0 0 1-.24-.144c-.25-.239-.32-.603-.24-.939-.03-.03 0-.061 0-.061 0-.03 0-.053.01-.076s.01-.046.01-.076c.03-.153.11-.306.2-.459l.11-.245.03-.031c.23-.429.36-.887.5-1.346a.673.673 0 0 0-.07-.424c.02-.031.02-.031-.01-.061l.08-.336c-.1-.052-.21-.105-.31-.159a8.286 8.286 0 0 1-.95-.522 8.526 8.526 0 0 1-1.9-1.401c-.94-.899-1.71-1.922-2.26-3.1l-.36.127-.03.023c-.01 0-.02-.007-.03-.022a.692.692 0 0 0-.43-.055c-.45.159-.9.318-1.32.567l-.23.125c-.08.047-.15.078-.23.11-.07.031-.15.063-.22.11-.06 0-.12.001-.15.032-.03-.03-.06.001-.06.001-.33.096-.7.041-.95-.199a.81.81 0 0 1-.16-.271.865.865 0 0 1 .54-1.073c.03.03.06-.001.06-.001.03 0 .05-.008.07-.016.03-.008.05-.016.08-.016.09-.015.18-.035.26-.054.1-.023.18-.044.25-.045a.761.761 0 0 0 .27-.034l.03-.031c.45-.098.93-.227 1.35-.415.12-.063.24-.186.26-.339 0 0-.03-.03 0-.06l.36-.067c-.16-.453-.24-.878-.32-1.364-.34-2.093-.02-4.196.86-6.064l-.32-.239s.03-.03 0-.06a.495.495 0 0 0-.16-.333l-.03-.03a8.15 8.15 0 0 0-1.3-.71l-.03-.03c-.07-.06-.16-.09-.25-.119-.05-.022-.1-.044-.16-.067-.1-.04-.2-.083-.3-.139-.01-.01-.02-.026-.04-.046-.03-.043-.07-.095-.09-.074-.03.031-.03.031-.06.001-.09-.029-.12-.059-.18-.119a.8.8 0 0 1-.22-1.03c.26-.4.77-.499 1.17-.23.04-.001.05-.002.07.004 0 .004.01.011.03.024.03.035.07.05.1.061.02.009.04.016.05.028.06.06.13.112.2.165.07.052.14.104.21.164.09.029.15.089.21.149.41.328.81.596 1.25.833.15.028.3.057.42-.006 0 0 .03.03.06-.001l.31.178c1.39-2.028 3.49-3.427 5.9-4.01a.684.684 0 0 1 .12-.032c.04-.008.07-.016.12-.032l-.01-.353c.09-.075.14-.237.14-.348-.02-.487-.16-.971-.3-1.456l-.1-.272c-.06-.182-.13-.363-.17-.515-.03-.03-.03-.151-.03-.151s.03-.031 0-.061a.898.898 0 0 1 .69-.983c.24-.065.45.023.64.203.16.15.26.361.3.574v.06c0 .03.01.053.02.076 0 .023.01.046.01.076.01.091 0 .175 0 .258-.01.084-.01.168-.01.26 0 .017.01.039.01.062.01.053.02.116 0 .18-.02.457.03.973.11 1.459.03.09.07.181.13.241.04.035.07.05.1.061.02.008.04.016.06.028l.03.03.07.303c2.06-.09 4.14.426 5.9 1.525.07.043.13.086.19.128.37.248.71.481 1.03.737l.26-.217.06-.062c.15.028.27-.034.39-.097.35-.37.68-.709.93-1.108l.03-.031a.557.557 0 0 0 .15-.215c.08-.153.17-.307.29-.43l.14-.154a.845.845 0 0 1 .6-.252c.3-.005.58.082.74.293.28.33.24.878-.08 1.157l-.18.185c-.07.047-.14.1-.2.155-.07.054-.14.108-.21.155-.03.031-.07.054-.11.078-.03.023-.07.047-.1.077l-.03.031c-.41.31-.73.65-1.06.989-.05.122-.11.245-.07.396l.03-.03-.21.276c1.33 1.562 2.25 3.495 2.56 5.498.01.243.02.494.04.745.02.25.03.501.04.744l.4.086.03.03c0 .06.06.12.1.15.06.06.15.09.24.118.46.085.98.108 1.43.07.02 0 .04.003.06.006.06.006.12.013.18-.009.15-.032.34-.035.52-.038.03.03.09.03.15.028h.06c.21.027.43.115.59.265.15.15.25.422.23.635-.04.487-.46.797-.94.744-.02.011-.02.023-.02.033 0 .016 0 .028-.04.028a.234.234 0 0 1-.08-.014.195.195 0 0 0-.08-.014c-.09-.029-.17-.05-.26-.072-.08-.022-.16-.043-.26-.072l-.27-.087a7.76 7.76 0 0 0-1.47-.222c-.12.001-.27.095-.35.187l-.03.031-.37.005c-.23 1.251-.67 2.474-1.3 3.578-.66 1.074-1.47 2.059-2.45 2.834l.19.301a.528.528 0 0 0 .02.426c.26.422.57.843.89 1.203l.03.03c.04.091.1.151.16.211.13.12.25.239.35.39.06.06.12.12.09.151Zm-10.63-21.67v-.012l-.03.031a.293.293 0 0 0 .03-.019Zm1.28 11.74 1.23.407 1.07-.684.1-1.31-.94-.898-1.3.17-.62 1.105.46 1.21Zm6.53 5.348c.67-.588 1.26-1.265 1.71-2.063.46-.797.8-1.654.98-2.538l-4.34-.15a.628.628 0 0 0-.33.096c-.33.218-.44.645-.21.977l2.19 3.678Zm-1.44-7.309 4.27.668c-.06-1.824-.73-3.578-1.96-5.05l-2.77 3.294a.358.358 0 0 0-.11.306c-.05.366.23.696.57.782Zm.83-5.851-.75-.476a8.61 8.61 0 0 0-4.4-1.213l.87 4.306c.02.025.03.05.04.072a.75.75 0 0 0 .15.23c.29.27.74.293 1.01.015l3.08-2.934Zm-6.76 2.836-.39-4.252a8.823 8.823 0 0 0-4.48 2.894l3.86 2.042c.16.089.25.118.4.085.4-.036.66-.374.61-.77Zm-2.26 2.892-3.61-2.441c-.73 1.653-.87 3.571-.45 5.329l3.89-1.7c.15-.032.26-.155.32-.278.2-.276.1-.67-.15-.91Zm-1.61 7.049c.47.449.97.807 1.5 1.134.27.148.49.297.71.446l1.04-4.121c-.01-.183-.01-.304-.05-.456-.1-.333-.41-.511-.74-.476l-4.14 1.277c.45.785 1.02 1.567 1.68 2.196Zm4.23 2.158a8.16 8.16 0 0 0 3.64-.053c.57-.099 1.14-.321 1.71-.603l-2.64-3.519c-.1-.09-.22-.149-.34-.208a.684.684 0 0 0-.84.316l-1.53 4.067Z"
    fill="#0066F5" />
  <path opacity=".8"
    d="m1677.07 270.752 33.36-.077c.41-.001.77.256.9.638a.931.931 0 0 1-.34 1.047l-9.01 6.719 4.31 1.443c.34.111.58.397.63.741a.927.927 0 0 1-.37.897l-24.88 18.22-4.6-29.628Z"
    fill="#0066F5" />
  <path opacity=".8" d="m1692.44 286.089 9.53-7.014-24.9-8.324 15.37 15.338Z" fill="#0066F5" />
  <path
    d="m1681.66 300.386 23.53-7.611c.34-.112.59-.4.64-.746a.927.927 0 0 0-.37-.9l-28.4-20.372-5.55 14.595c-.35.916-.19 1.941.42 2.708l9.73 12.326Z"
    fill="#0066F5" />
  <path opacity=".2"
    d="M1672.17 288.019a2.759 2.759 0 0 1-.42-2.708l5.54-14.559h-.22l-5.55 14.594a2.76 2.76 0 0 0 .42 2.709l9.73 12.325.21-.068-9.71-12.293Z"
    fill="#0066F5" />
  <path fill="#0066F5" d="m1699.34 455.623-13.365 33.4-33.303-13.403 13.366-33.4z" />
  <path fill-rule="evenodd" clip-rule="evenodd"
    d="m1664.44 453.13 7.93 3.191-2.14 5.347-1.28-.514 1.56-3.878-2.04-.818-1.46 3.661-1.28-.514 1.47-3.661-2.07-.831-1.55 3.878-1.28-.514 2.14-5.347Zm-2.57 6.424 7.93 3.191-.46 1.145-6.62 1.787 5.09 2.047-.59 1.469-7.93-3.191.46-1.156 6.72-1.737-5.19-2.086.59-1.469Zm4.99 10.538-9.05-.383-.68 1.685 6.81 5.988.64-1.598-5.28-4.502 6.92.408.64-1.598Zm.66-18.267.87-2.195-2.2-.886-.88 2.194 2.21.887Z"
    fill="#fff" />
  <path
    d="M1578.94 614.086c-1.46-1.86-1.15-4.533.68-5.967 1.83-1.433 4.49-1.086 5.94.774 1.45 1.86 1.14 4.533-.68 5.967-1.81 1.46-4.49 1.086-5.94-.774Zm-7.75-16.778c-6.52 5.11-8.45 13.918-5.19 21.27.04.054.04.102.08.156a.84.84 0 0 0 1.19.155l5.61-4.404a.853.853 0 0 0 .3-.882c-.83-3.476.3-7.228 3.26-9.555 4.03-3.157 9.92-2.39 13.12 1.708 3.2 4.098 2.52 10.017-1.51 13.175-2.94 2.305-6.87 2.52-10.04.873a.838.838 0 0 0-.92.073l-5.62 4.404a.837.837 0 0 0-.13 1.193c.04.054.06.081.13.114 6.33 4.942 15.32 5.193 21.84.083 7.71-6.045 9-17.31 2.88-25.155-6.1-7.819-17.29-9.253-25-3.208ZM1414.51 707.763l26.77-4.257a3.422 3.422 0 0 0 2.84-3.915l-4.74-30.808a3.381 3.381 0 0 0-3.88-2.847l-26.77 4.256a3.415 3.415 0 0 0-2.84 3.916l4.74 30.807a3.376 3.376 0 0 0 3.88 2.848Zm-6.76-33.952a1.511 1.511 0 0 1 1.27-1.74l26.77-4.257c.84-.133 1.59.42 1.72 1.266l4.74 30.807c.13.846-.42 1.607-1.26 1.741l-26.77 4.256c-.84.134-1.59-.42-1.72-1.265l-4.75-30.808Zm23.58-1.439-3.62 4.425 4.77 3.089-1.15-7.514Zm-12.77 17.619c.86.633 2.4 1.349 4.74.979 2.51-.401 5.02-1.474 6.79-2.428l1.65 10.708 3.73-.593-2.5-16.25-2.43 1.637s-3.98 2.654-7.71 3.248c-1.87.296-2.5-.663-2.64-1.602l-1.73-11.271-3.74.593 1.74 11.271c-.05.297.27 2.363 2.1 3.708Zm5.71 4.192-3.73.593c-1.38 2.239-1.91 4.345-1.86 6.55l3.73-.593c.04-2.22.67-4.34 1.86-6.55Z"
    fill="#0066F5" />
  <path fill-rule="evenodd" clip-rule="evenodd"
    d="m1277.48 681.837-3.07 12.904-9.32-8.983 3.06-12.903 9.33 8.982Zm-16.28-33.313 9.33 8.983-3.06 12.903-9.33-8.982 3.06-12.904Zm2.86 36.217-9.32-8.99 3.06-12.897 9.32 8.983-3.06 12.904Zm-10.51-9.279 3.06-12.897-12.39 3.913-3.06 12.911 12.39-3.927ZM1399.93 8.528c23.85.176 46.53 2.755 68.01 7.394l-10.32 38.71c-18.35-3.833-37.68-5.955-57.99-6.105-100.02-.74-191.09 38.177-278.51 98.962-76.96 53.51-149.9 123.098-222.738 195.691l-.148-.147-56.519 56.614.169.168c-73.925 74.139-148.71 147.687-226.939 204.331-87.656 63.469-181.619 107.232-286.138 106.458-30.981-.229-59.757-4.071-86.379-10.86l10.956-38.499c23.317 5.854 48.531 9.159 75.718 9.36 92.634.686 178.297-37.973 262.383-98.858 80.129-58.019 157.021-134.843 235.859-214.014l-.157-.156 28.248-28.322.145.144c77.589-77.699 157.44-155.465 242.7-214.751 91.35-63.518 190.46-106.943 301.65-106.12ZM838.401 312.35c-73.46-72.782-147.813-144.454-223.888-200.425a910.32 910.32 0 0 0-25.396-18.04l-23.449 32.423a868.987 868.987 0 0 1 25.141 17.836c73.606 54.155 145.969 123.847 219.342 196.528l28.25-28.322Zm34.201 90.327c76.264 75.472 154.078 150.034 234.458 207.509a923.172 923.172 0 0 0 19.64 13.663l22-33.416a851.334 851.334 0 0 1-18.37-12.785c-77.61-55.491-153.296-127.915-229.466-203.281l-28.262 28.31Z"
    fill="#0066F5" />
  <path
    d="m240.503 663.835-6.712 17.747-5.853-2.199a9.983 9.983 0 0 1-4.165-2.809 8.058 8.058 0 0 1-1.869-4.216 10.417 10.417 0 0 1 .71-5.116 10.47 10.47 0 0 1 2.843-4.29 8.18 8.18 0 0 1 4.21-1.946 9.902 9.902 0 0 1 5.013.64l5.823 2.189Zm-2.581 1.068-3.948-1.482a7.52 7.52 0 0 0-3.886-.474 6.344 6.344 0 0 0-3.257 1.587 8.766 8.766 0 0 0-2.243 3.464 8.51 8.51 0 0 0-.584 4.069 6.459 6.459 0 0 0 1.41 3.343 7.38 7.38 0 0 0 3.2 2.199l3.948 1.492 5.36-14.198ZM217.612 654.313a6.829 6.829 0 0 1 4.085 5.646 7.223 7.223 0 0 1-.661 3.742 7.17 7.17 0 0 1-2.328 2.949 6.87 6.87 0 0 1-3.305 1.3 6.873 6.873 0 0 1-3.638-.61 6.918 6.918 0 0 1-2.872-2.295 6.77 6.77 0 0 1-1.223-3.312 7.392 7.392 0 0 1 .681-3.722 7.315 7.315 0 0 1 2.377-2.949 7.033 7.033 0 0 1 3.315-1.339 6.745 6.745 0 0 1 3.569.59Zm-.775 1.744a4.613 4.613 0 0 0-2.561-.385 4.81 4.81 0 0 0-2.372.971 5.457 5.457 0 0 0-1.689 2.173 5.435 5.435 0 0 0-.495 2.685c.064.867.355 1.701.844 2.419a4.575 4.575 0 0 0 1.967 1.646c.799.37 1.687.503 2.56.385a4.956 4.956 0 0 0 2.373-.971 5.353 5.353 0 0 0 1.698-2.143 5.404 5.404 0 0 0 .485-2.716 5.002 5.002 0 0 0-.843-2.448 4.58 4.58 0 0 0-1.967-1.616ZM203.969 647.943a3.66 3.66 0 0 1 2.052 2.23 4.368 4.368 0 0 1-.488 3.18l-3.495 6.895 2.257 1.134-.863 1.705-.572-.282a1.752 1.752 0 0 0-1.484-.109 2.137 2.137 0 0 0-1.106 1.059l-.512.985-1.716-.863 1.426-2.817-2.691-1.355.863-1.704 2.682 1.345 3.495-6.895c.188-.353.309-.738.355-1.135a1.644 1.644 0 0 0-.25-1.049 2.484 2.484 0 0 0-1.062-.878l-.444-.201-.454-.172.764-1.517c.229.049.453.117.671.203.195.071.386.151.572.241ZM199.667 645.914l-9.276 16.581-10.694-6.011.933-1.674 8.87 5.009 3.229-5.77-8.466-4.719.933-1.674 8.466 4.719 3.249-5.799-8.87-5.009.933-1.664 10.693 6.011ZM186.282 638.36l-10.223 16.011-1.507-1-.845-19.474.581.37-8.611 13.482-1.714-1.101 10.213-16.011 1.507 1 .756 19.553-.581-.37 8.651-13.571 1.773 1.111ZM166.695 625.353l-5.498 19.466-1.723-1.248 5.127-17.502.335.24-15.03 10.349-1.733-1.278 16.789-11.306 1.733 1.279ZM103.302 564.058a9.347 9.347 0 0 1 1.737 3.335 8.914 8.914 0 0 1 .221 3.561 9.438 9.438 0 0 1-1.233 3.432 10.648 10.648 0 0 1-2.644 2.947 10.708 10.708 0 0 1-3.498 1.951 9.61 9.61 0 0 1-3.636.438 8.738 8.738 0 0 1-3.426-1.014 9.303 9.303 0 0 1-2.882-2.444 8.547 8.547 0 0 1-1.63-3.156 8.356 8.356 0 0 1-.234-3.136 6.806 6.806 0 0 1 .841-2.604l1.853 1.003a6.161 6.161 0 0 0-.727 3.366 6.02 6.02 0 0 0 1.4 3.362 6.934 6.934 0 0 0 3.1 2.297c1.2.435 2.498.53 3.75.275a8.915 8.915 0 0 0 3.823-1.87 8.832 8.832 0 0 0 2.697-3.312 6.816 6.816 0 0 0 .542-3.684 7.1 7.1 0 0 0-1.558-3.522 6.026 6.026 0 0 0-2.953-2.118 5.941 5.941 0 0 0-3.434-.025l-.53-1.981a6.634 6.634 0 0 1 2.695-.307 8.147 8.147 0 0 1 2.962.932 8.276 8.276 0 0 1 2.764 2.274ZM83.461 565.286l-2.259 1.664-1.087-1.53 2.21-1.714 1.136 1.58Zm13.035-9.612-11.005 8.115-1.137-1.541 11.006-8.115 1.136 1.541ZM93.078 551.021l-11.162 7.896-1.107-1.56 1.83-1.302-.121.405a3.606 3.606 0 0 1-2.096-.322 4.662 4.662 0 0 1-1.838-1.615l-.5-.716 1.562-1.096.695.994a3.164 3.164 0 0 0 2.118 1.41 3.57 3.57 0 0 0 2.638-.772l6.884-4.892 1.097 1.57ZM85.003 538.711a6.675 6.675 0 0 1 1.162 3.479 6.67 6.67 0 0 1-.827 3.405 7.628 7.628 0 0 1-2.583 2.739 7.612 7.612 0 0 1-3.523 1.279 6.536 6.536 0 0 1-3.44-.609 6.593 6.593 0 0 1-2.723-2.442 6.408 6.408 0 0 1-.973-2.252 6.917 6.917 0 0 1-.062-2.344 5.06 5.06 0 0 1 .788-2.08l1.704 1.001a4.36 4.36 0 0 0-.64 2.28c.008.848.267 1.676.745 2.378a4.525 4.525 0 0 0 1.907 1.665 4.872 4.872 0 0 0 2.5.404 5.863 5.863 0 0 0 2.591-.969 5.604 5.604 0 0 0 1.885-1.964c.42-.75.635-1.597.622-2.457a4.425 4.425 0 0 0-.764-2.418 4.269 4.269 0 0 0-1.888-1.606 4.414 4.414 0 0 0-2.403-.304l-.163-1.979a5.248 5.248 0 0 1 2.206.105 6.64 6.64 0 0 1 2.14 1.005 6.268 6.268 0 0 1 1.74 1.684ZM79.941 531.368l-16.434 10.151-.977-1.629 16.424-10.141.987 1.619ZM74.065 520.972a6.42 6.42 0 0 1 .965 3.457 6.69 6.69 0 0 1-1.015 3.394 7.617 7.617 0 0 1-2.751 2.619 7.472 7.472 0 0 1-3.61 1.081 6.656 6.656 0 0 1-3.36-.776 6.377 6.377 0 0 1-2.475-2.441 6.2 6.2 0 0 1-.843-2.557 6.048 6.048 0 0 1 .286-2.46 6.823 6.823 0 0 1 1.183-2.127 6.874 6.874 0 0 1 1.853-1.568 5.07 5.07 0 0 1 .506-.263c.199-.097.397-.175.606-.263l5.785 10-1.54.888-5.248-9.046 1.125.414a4.044 4.044 0 0 0-1.99 1.537 4.25 4.25 0 0 0-.74 2.239 4.13 4.13 0 0 0 .587 2.308 4.507 4.507 0 0 0 1.759 1.714c.751.401 1.6.586 2.45.532a5.158 5.158 0 0 0 2.68-.969 5.045 5.045 0 0 0 2.2-1.892 4.761 4.761 0 0 0 .731-2.486 4.722 4.722 0 0 0-.645-2.437 4.34 4.34 0 0 0-1.886-1.833 5.648 5.648 0 0 0-2.381-.532l-.066-1.849a5.02 5.02 0 0 1 2.097.233 6.558 6.558 0 0 1 2.09 1.103 6.751 6.751 0 0 1 1.647 1.98ZM65.352 505.019a9.176 9.176 0 0 1 1.052 3.617 8.514 8.514 0 0 1-.471 3.526 9.209 9.209 0 0 1-1.864 3.14 10.995 10.995 0 0 1-3.175 2.419 10.914 10.914 0 0 1-3.81 1.188 9.563 9.563 0 0 1-3.65-.275 8.518 8.518 0 0 1-3.164-1.635 9.147 9.147 0 0 1-2.343-2.983 8.553 8.553 0 0 1-.965-3.408 8.456 8.456 0 0 1 .38-3.122 6.632 6.632 0 0 1 1.304-2.363l1.623 1.317a6.164 6.164 0 0 0-1.37 3.154 6.114 6.114 0 0 0 .727 3.574 6.996 6.996 0 0 0 2.591 2.857 6.874 6.874 0 0 0 3.635 1.016 8.854 8.854 0 0 0 4.105-1.087 8.909 8.909 0 0 0 3.246-2.715 6.679 6.679 0 0 0 1.283-3.53 7.072 7.072 0 0 0-.833-3.763 6.16 6.16 0 0 0-2.504-2.708 5.943 5.943 0 0 0-3.36-.707l-.132-2.087a6.76 6.76 0 0 1 2.71.306 8.328 8.328 0 0 1 2.769 1.514 8.443 8.443 0 0 1 2.216 2.755ZM60.148 495.222l-17.191 8.138-.878-1.835 17.182-8.149.887 1.846ZM34.72 424.935l-18.546 4.144-.45-1.98 8.346-1.916-2.232-9.904-8.347 1.866-.44-1.98 18.547-4.154.45 1.981-8.347 1.915 2.233 9.904 8.346-1.866.44 1.99ZM30.122 400.856a6.54 6.54 0 0 1-.343 3.557 6.76 6.76 0 0 1-2.129 2.831 7.58 7.58 0 0 1-3.495 1.487 7.564 7.564 0 0 1-3.759-.245 6.577 6.577 0 0 1-2.865-1.91 6.223 6.223 0 0 1-1.471-3.155 6.094 6.094 0 0 1 .109-2.688 6.02 6.02 0 0 1 1.124-2.197 6.802 6.802 0 0 1 1.863-1.578 6.74 6.74 0 0 1 2.282-.823l.565-.065c.217-.013.435-.012.653.005l1.895 11.384-1.764.293-1.735-10.305.905.778a4.115 4.115 0 0 0-2.43.733 4.287 4.287 0 0 0-1.469 1.838 4.1 4.1 0 0 0-.264 2.371 4.4 4.4 0 0 0 1.052 2.213 4.554 4.554 0 0 0 2.098 1.37 5.206 5.206 0 0 0 2.86.021 5.166 5.166 0 0 0 2.729-.968 4.807 4.807 0 0 0 1.549-2.075 4.734 4.734 0 0 0 .246-2.51 4.26 4.26 0 0 0-1.12-2.371 5.76 5.76 0 0 0-2.04-1.34l.588-1.746a5.258 5.258 0 0 1 1.883.944 6.614 6.614 0 0 1 1.56 1.771 6.62 6.62 0 0 1 .923 2.38ZM28.43 391.737l-13.57 1.709-.244-1.9 2.23-.28-.3.295a3.674 3.674 0 0 1-1.703-1.259 4.835 4.835 0 0 1-.854-2.3l-.112-.861 1.902-.233.15 1.187a3.146 3.146 0 0 0 1.21 2.234 3.554 3.554 0 0 0 2.698.564l8.35-1.056.244 1.9ZM27.177 376.997a6.77 6.77 0 0 1-.66 3.585 6.925 6.925 0 0 1-2.346 2.701 7.302 7.302 0 0 1-3.601 1.219 7.384 7.384 0 0 1-3.717-.63 6.926 6.926 0 0 1-2.724-2.285 6.836 6.836 0 0 1-1.202-3.469 6.836 6.836 0 0 1 .64-3.624 6.63 6.63 0 0 1 2.326-2.662 7.336 7.336 0 0 1 3.591-1.19 7.262 7.262 0 0 1 3.776.651 6.928 6.928 0 0 1 2.724 2.314 6.717 6.717 0 0 1 1.192 3.39Zm-1.912.154a4.606 4.606 0 0 0-.882-2.429 5.051 5.051 0 0 0-1.968-1.606 5.446 5.446 0 0 0-2.728-.435 5.34 5.34 0 0 0-2.59.851 5.06 5.06 0 0 0-1.726 1.905 4.76 4.76 0 0 0-.493 2.527c.063.876.368 1.717.882 2.429a5.157 5.157 0 0 0 1.968 1.616c.845.384 1.774.54 2.698.455a5.443 5.443 0 0 0 2.62-.87 4.946 4.946 0 0 0 1.745-1.915c.396-.78.56-1.657.474-2.528ZM26.228 367.024l-19.31.223.014-1.908 13.53-.157-.124.81-7.862-7.583.019-2.471 5.542 5.291 8.13-5.932-.017 2.294-7.513 5.57.088-1.225 4.078 3.846-1.588-.614 5.027-.062-.014 1.918ZM26.747 348.499a5.172 5.172 0 0 1-.8 2.565 4.953 4.953 0 0 1-1.993 1.755 5.728 5.728 0 0 1-2.825.532l-8.616-.439.093-1.918 8.39.428a3.96 3.96 0 0 0 1.981-.341 3.214 3.214 0 0 0 1.355-1.186c.341-.549.53-1.179.548-1.825.048-.649-.08-1.3-.372-1.882a3.216 3.216 0 0 0-1.287-1.334 4.49 4.49 0 0 0-2.074-.569l-8.132-.416.093-1.908 13.662.695-.093 1.907-2.651-.128.122-.434c.83.358 1.52.978 1.966 1.764.48.828.7 1.78.633 2.734ZM41.417 268.504l-16.301-5.143-1.58 5.011-1.828-.577 3.76-11.916 1.827.577-1.56 4.932 16.3 5.143-.618 1.973ZM46.07 255.558a6.582 6.582 0 0 1-2.002 2.951 6.749 6.749 0 0 1-3.227 1.439 7.607 7.607 0 0 1-3.787-.384 7.567 7.567 0 0 1-3.172-2 6.636 6.636 0 0 1-1.581-3.057 6.322 6.322 0 0 1 .243-3.469 6.12 6.12 0 0 1 1.403-2.303 5.869 5.869 0 0 1 2.049-1.369 6.614 6.614 0 0 1 2.388-.487 6.763 6.763 0 0 1 2.393.384l.532.211.592.291-3.841 10.897-1.688-.596 3.477-9.861.418 1.12a4.056 4.056 0 0 0-2.47-.532 4.331 4.331 0 0 0-2.185.893 4.207 4.207 0 0 0-1.38 1.968 4.375 4.375 0 0 0-.157 2.441 4.526 4.526 0 0 0 1.182 2.213 5.015 5.015 0 0 0 2.493 1.393 5.06 5.06 0 0 0 2.857.456 4.664 4.664 0 0 0 2.363-1.06 4.816 4.816 0 0 0 1.44-2.076 4.304 4.304 0 0 0 .168-2.618 5.585 5.585 0 0 0-1.142-2.154l1.366-1.256c.51.496.913 1.091 1.184 1.749a6.61 6.61 0 0 1 .518 2.298 7.068 7.068 0 0 1-.435 2.518ZM48.989 246.691l-12.76-4.949.696-1.785 2.092.817-.397.115a3.548 3.548 0 0 1-.896-1.924 4.751 4.751 0 0 1 .335-2.42l.322-.809 1.777.686-.434 1.124a3.141 3.141 0 0 0-.02 2.541 3.602 3.602 0 0 0 2.106 1.775l7.895 3.025-.716 1.804ZM52.11 238.775l-12.639-5.235.736-1.764 2.072.855-.407.116a3.578 3.578 0 0 1-.846-1.984 4.722 4.722 0 0 1 .394-2.419l.332-.799 1.766.735-.463 1.104a3.204 3.204 0 0 0-.02 2.541 3.613 3.613 0 0 0 2.066 1.825l7.784 3.221-.775 1.804ZM57.269 227.462a5.184 5.184 0 0 1-1.4 1.868 4.157 4.157 0 0 1-1.906.906 3.405 3.405 0 0 1-2.057-.282 4.212 4.212 0 0 1-1.594-1.218 3.956 3.956 0 0 1-.778-1.914 6.818 6.818 0 0 1 .227-2.609l1.385-5.25 1.578.714-1.262 4.796a3.763 3.763 0 0 0-.018 2.333 2.274 2.274 0 0 0 1.218 1.255 1.985 1.985 0 0 0 1.722.013 2.752 2.752 0 0 0 1.347-1.454 4.78 4.78 0 0 0 .454-2.478 4.262 4.262 0 0 0-.806-2.152 4.476 4.476 0 0 0-1.83-1.467l-3.166-1.417a2.484 2.484 0 0 0-2.177-.016 3.442 3.442 0 0 0-1.656 1.807 3.853 3.853 0 0 0-.324 2.252c.103.733.414 1.421.896 1.984l-1.572 1.194a4.52 4.52 0 0 1-.977-1.757 6.688 6.688 0 0 1-.251-2.197c.032-.757.209-1.5.52-2.191a5.943 5.943 0 0 1 1.63-2.193 4.47 4.47 0 0 1 2.224-.972 4.352 4.352 0 0 1 2.442.384l8.572 3.85-.785 1.745-2.496-1.126.367-.136c.39.457.67.997.82 1.578a5.81 5.81 0 0 1 .183 1.979 6.366 6.366 0 0 1-.53 2.171ZM62.013 216.523l-10.57-5.17-1.196 2.453-1.716-.843 1.196-2.454-1.105-.532a4.338 4.338 0 0 1-1.878-1.635 4.169 4.169 0 0 1-.608-2.16 5.094 5.094 0 0 1 .532-2.24c.084-.178.181-.349.29-.512a4.52 4.52 0 0 1 .32-.443l1.558.763c-.11.12-.2.256-.27.403-.1.187-.17.315-.2.384a3.39 3.39 0 0 0-.372 2.094 2.357 2.357 0 0 0 1.472 1.632l1.105.532 1.466-2.955 1.716.833-1.467 3.005 10.571 5.16-.844 1.685ZM68.663 204.114a6.805 6.805 0 0 1-2.474 2.671 6.855 6.855 0 0 1-3.432 1.023 7.216 7.216 0 0 1-3.695-.908 7.116 7.116 0 0 1-2.792-2.512 6.827 6.827 0 0 1-1.083-3.389 6.915 6.915 0 0 1 .848-3.573 6.926 6.926 0 0 1 2.484-2.711 6.59 6.59 0 0 1 3.392-.963 7.428 7.428 0 0 1 3.674.917 7.258 7.258 0 0 1 2.832 2.582 6.804 6.804 0 0 1 1.063 3.399 6.787 6.787 0 0 1-.817 3.464Zm-1.696-.892c.421-.77.616-1.642.563-2.518a5.007 5.007 0 0 0-.843-2.438 5.56 5.56 0 0 0-2.065-1.834 5.313 5.313 0 0 0-2.647-.663 4.96 4.96 0 0 0-2.47.674 4.643 4.643 0 0 0-1.775 1.875 4.654 4.654 0 0 0-.563 2.517c.062.869.342 1.707.814 2.439a5.469 5.469 0 0 0 2.035 1.834c.82.449 1.742.678 2.677.662a5.107 5.107 0 0 0 2.499-.673 4.642 4.642 0 0 0 1.755-1.876l.02.001ZM73.268 195.072l-11.825-6.81 1.002-1.654 1.97 1.112-.416.056a3.584 3.584 0 0 1-.588-2.031c.024-.83.265-1.64.7-2.348l.431-.748 1.666.952-.602 1.043a3.114 3.114 0 0 0-.384 2.509 3.548 3.548 0 0 0 1.805 2.07l7.302 4.196-1.06 1.653ZM77.41 187.727l-11.555-7.323 1.002-1.614 2.197 1.39-.486.056a4.21 4.21 0 0 1-.685-2.408 4.757 4.757 0 0 1 .75-2.417 4.844 4.844 0 0 1 2.291-1.96 4.892 4.892 0 0 1 2.971-.285l-.27.473a4.458 4.458 0 0 1-1.088-2.796 4.938 4.938 0 0 1 .802-2.792 5.003 5.003 0 0 1 1.924-1.795 5.188 5.188 0 0 1 2.537-.595c.918.026 1.81.307 2.578.81l7.505 4.762-1.001 1.614-6.895-4.362a4.476 4.476 0 0 0-1.974-.756 3.274 3.274 0 0 0-1.784.303 3.27 3.27 0 0 0-1.335 1.236 3.292 3.292 0 0 0-.547 1.736c-.014.624.15 1.239.472 1.774a4.42 4.42 0 0 0 1.532 1.514l6.895 4.362-1.001 1.614-6.895-4.362a4.716 4.716 0 0 0-2.024-.756 3.335 3.335 0 0 0-1.783.313c-.554.275-1.02.7-1.345 1.226a3.415 3.415 0 0 0-.548 1.755c-.008.622.16 1.233.482 1.764.377.621.9 1.14 1.523 1.514l6.895 4.362-1.14 1.643ZM132.973 117.624l-7.64-18.723 1.624-1.471 17.922 9.406-1.594 1.442-4.327-2.346-6.297 5.708 1.896 4.552-1.584 1.432Zm-1.1-7.848 5.271-4.776-10.193-5.494.449-.412 4.473 10.682ZM146.458 105.563l-8.661-10.574 1.484-1.215 1.677 2.05-.397.194a4.247 4.247 0 0 1-.04-2.67 4.79 4.79 0 0 1 1.601-2.292 5.232 5.232 0 0 1 2.453-1.148 4.953 4.953 0 0 1 2.571.256 5.147 5.147 0 0 1 2.185 1.588l5.62 6.874-1.483 1.205-5.15-6.257a4.549 4.549 0 0 0-1.692-1.347 3.228 3.228 0 0 0-1.819-.251 3.56 3.56 0 0 0-1.728.808 3.635 3.635 0 0 0-1.14 1.543 3.255 3.255 0 0 0-.132 1.848c.163.712.497 1.373.975 1.926l5.149 6.296-1.473 1.166ZM161.68 93.94a6.083 6.083 0 0 1-3.365 1.26 5.655 5.655 0 0 1-3.328-.894l.833-1.566a4.95 4.95 0 0 0 2.509.612 3.961 3.961 0 0 0 2.312-.804 3.406 3.406 0 0 0 1.299-1.71 1.857 1.857 0 0 0-.254-1.762 1.565 1.565 0 0 0-.985-.66 2.802 2.802 0 0 0-1.148.04c-.338.069-.67.166-.992.29l-1.915.728a5.508 5.508 0 0 1-3.091.412 3.294 3.294 0 0 1-1.97-1.29 3.743 3.743 0 0 1-.757-2.043c-.02-.733.157-1.459.51-2.102a5.65 5.65 0 0 1 1.577-1.768 5.795 5.795 0 0 1 3.067-1.154 4.871 4.871 0 0 1 3.111.824l-.853 1.586a4.248 4.248 0 0 0-2.252-.57 3.685 3.685 0 0 0-2.094.755c-.57.36-.984.922-1.159 1.573a1.831 1.831 0 0 0 .334 1.595c.234.337.585.576.985.67.326.07.663.073.99.007.287-.07.568-.161.843-.27l2.223-.825a5.506 5.506 0 0 1 2.971-.334c.876.158 1.657.65 2.177 1.37.441.57.686 1.265.698 1.984a4.043 4.043 0 0 1-.55 2.14 5.94 5.94 0 0 1-1.726 1.906ZM158.815 75.667l-1.597-2.295 1.572-1.096 1.596 2.306-1.571 1.085Zm9.244 13.298-7.835-11.22 1.572-1.096 7.834 11.23-1.571 1.086ZM178.688 82.232a6.218 6.218 0 0 1-3.105 1.035 5.101 5.101 0 0 1-3.023-.784l.102-.395 1.653 2.574-1.62 1.036-10.39-16.272 1.621-1.027 4.676 7.322-.552-.281a6.03 6.03 0 0 1 .734-2.911 6.148 6.148 0 0 1 2.224-2.327 6.459 6.459 0 0 1 3.412-1.072 6.756 6.756 0 0 1 3.389.845 7.541 7.541 0 0 1 2.722 2.62 7.46 7.46 0 0 1 1.22 3.56 6.568 6.568 0 0 1-.649 3.435 6.36 6.36 0 0 1-2.414 2.642Zm-1.107-1.55a4.545 4.545 0 0 0 1.697-1.906 4.778 4.778 0 0 0 .434-2.498 5.58 5.58 0 0 0-.902-2.578 5.455 5.455 0 0 0-1.965-1.922 4.772 4.772 0 0 0-2.439-.651 4.473 4.473 0 0 0-2.45.743 4.593 4.593 0 0 0-1.727 1.915 5.008 5.008 0 0 0-.473 2.528c.069.927.375 1.822.891 2.597a5.458 5.458 0 0 0 1.965 1.893 5.02 5.02 0 0 0 2.499.631 4.692 4.692 0 0 0 2.49-.752h-.02ZM187.008 76.796l-9.773-16.663 1.65-.977 9.773 16.663-1.65.977ZM197.57 71.258a6.634 6.634 0 0 1-3.479.805 6.655 6.655 0 0 1-3.367-1.112 7.667 7.667 0 0 1-2.532-2.837 7.592 7.592 0 0 1-.963-3.636 6.64 6.64 0 0 1 .896-3.325 6.284 6.284 0 0 1 2.531-2.394 6.168 6.168 0 0 1 2.589-.762 6.002 6.002 0 0 1 2.442.335c.764.29 1.472.714 2.088 1.251a6.969 6.969 0 0 1 1.51 1.9c.079.149.156.327.244.516.088.188.165.406.243.614l-10.194 5.442-.85-1.569 9.231-4.934-.454 1.114a4.008 4.008 0 0 0-1.459-2.067 4.28 4.28 0 0 0-2.221-.808 4.168 4.168 0 0 0-2.329.507 4.418 4.418 0 0 0-1.765 1.697 4.55 4.55 0 0 0-.631 2.428c.044.972.359 1.913.91 2.716a5.08 5.08 0 0 0 1.804 2.257 4.666 4.666 0 0 0 2.459.81 4.715 4.715 0 0 0 2.458-.566 4.31 4.31 0 0 0 1.894-1.815c.368-.734.58-1.537.621-2.358l1.851.014a5.391 5.391 0 0 1-.303 2.084 6.633 6.633 0 0 1-1.232 2.067 6.932 6.932 0 0 1-1.992 1.626ZM269.453 44.175l-.441-1.98.991-.22a2.978 2.978 0 0 0 1.99-1.32 3.223 3.223 0 0 0 .305-2.45l-2.939-13.449 1.982-.44 2.939 13.458a5.767 5.767 0 0 1-.021 2.848 4.336 4.336 0 0 1-1.342 2.145 5.462 5.462 0 0 1-2.503 1.198l-.961.21ZM286.009 41.204a7.825 7.825 0 0 1-3.364-.104 7.53 7.53 0 0 1-2.781-1.395 6.922 6.922 0 0 1-1.883-2.268l1.7-.977a5.776 5.776 0 0 0 2.544 2.54 5.517 5.517 0 0 0 3.461.412 5.54 5.54 0 0 0 2.054-.756 3.388 3.388 0 0 0 1.237-1.346 2.81 2.81 0 0 0 .211-1.718 2.956 2.956 0 0 0-1.134-1.986 4.949 4.949 0 0 0-2.359-.77l-3.55-.411a5.992 5.992 0 0 1-3.394-1.4 5.014 5.014 0 0 1-1.612-2.898 4.875 4.875 0 0 1 .268-2.757 5.062 5.062 0 0 1 1.688-2.143 6.258 6.258 0 0 1 2.76-1.166 7.401 7.401 0 0 1 3.137.093 7.08 7.08 0 0 1 2.564 1.215 6.026 6.026 0 0 1 1.717 1.99l-1.63.977a5.058 5.058 0 0 0-2.319-2.183 5.26 5.26 0 0 0-3.125-.33 4.38 4.38 0 0 0-1.827.709 2.967 2.967 0 0 0-1.088 1.297 3.195 3.195 0 0 0-.161 1.739c.123.768.51 1.47 1.094 1.985a4.435 4.435 0 0 0 2.476 1.007l3.125.36a7.223 7.223 0 0 1 3.672 1.292 4.441 4.441 0 0 1 1.681 2.89 4.73 4.73 0 0 1-.308 2.786 5.274 5.274 0 0 1-1.817 2.172 7.33 7.33 0 0 1-3.037 1.144ZM304.594 38.474a9.29 9.29 0 0 1-3.778-.295 9.25 9.25 0 0 1-3.234-1.675 9.443 9.443 0 0 1-2.384-2.856 10.201 10.201 0 0 1-1.199-3.825 10.335 10.335 0 0 1 .287-3.953 9.547 9.547 0 0 1 1.628-3.379 9.09 9.09 0 0 1 2.769-2.362 9.768 9.768 0 0 1 3.611-1.14 9.586 9.586 0 0 1 3.768.295 9.48 9.48 0 0 1 3.244 1.675 9.64 9.64 0 0 1 2.383 2.845 10.265 10.265 0 0 1 1.19 3.816c.16 1.323.062 2.665-.287 3.952a9.391 9.391 0 0 1-1.667 3.32 9.276 9.276 0 0 1-2.769 2.372 9.341 9.341 0 0 1-3.562 1.21Zm-.223-1.9a7.096 7.096 0 0 0 2.976-.967 7.012 7.012 0 0 0 2.142-1.962 7.98 7.98 0 0 0 1.247-2.69 8.535 8.535 0 0 0 .191-3.103 8.236 8.236 0 0 0-.898-2.973 7.963 7.963 0 0 0-1.824-2.337 6.999 6.999 0 0 0-2.543-1.422 7.207 7.207 0 0 0-3.075-.26 7.35 7.35 0 0 0-2.927.967 7.065 7.065 0 0 0-2.152 1.961 7.993 7.993 0 0 0-1.237 2.68 8.429 8.429 0 0 0-.201 3.084 8.666 8.666 0 0 0 .898 2.972 8.142 8.142 0 0 0 1.824 2.328 6.993 6.993 0 0 0 2.552 1.422 7.224 7.224 0 0 0 3.027.3ZM317.679 36.84l-1.077-18.972 1.782-.095 12.09 15.325-.683-.005-.872-15.954 2.04-.113 1.077 18.961-1.782.096-12.138-15.405.692.005.871 16.053-2 .104ZM412.744 43.426a9.134 9.134 0 0 1-3.463-1.489 8.72 8.72 0 0 1-2.425-2.608 9.29 9.29 0 0 1-1.231-3.43 10.843 10.843 0 0 1 .158-3.954 10.738 10.738 0 0 1 1.501-3.697 9.51 9.51 0 0 1 2.544-2.63 8.505 8.505 0 0 1 3.286-1.39 9.162 9.162 0 0 1 3.77.028 8.409 8.409 0 0 1 3.255 1.408 8.17 8.17 0 0 1 2.171 2.28c.492.776.823 1.642.971 2.549l-1.983.49a5.936 5.936 0 0 0-1.571-3.137 6.274 6.274 0 0 0-3.282-1.725 7.102 7.102 0 0 0-3.792.2 6.794 6.794 0 0 0-3.084 2.172 8.9 8.9 0 0 0-1.771 3.853 8.945 8.945 0 0 0 .029 4.232 6.756 6.756 0 0 0 1.905 3.237 7.194 7.194 0 0 0 3.441 1.746 6.737 6.737 0 0 0 3.445-.093 6.24 6.24 0 0 0 2.784-1.68 6.166 6.166 0 0 0 1.536-2.955l.215-.987.704 1.092-7.331-1.577.379-1.747 8.428 1.823-.338 1.54a8.634 8.634 0 0 1-1.37 3.213 8.307 8.307 0 0 1-2.362 2.266 8.293 8.293 0 0 1-3.057 1.154 9.01 9.01 0 0 1-3.462-.184ZM424.317 45.836l3.393-13.244 1.847.469-3.383 13.243-1.857-.468Zm4.015-15.691.693-2.714 1.857.469-.693 2.723-1.857-.478ZM434.891 48.82a3.667 3.667 0 0 1-2.442-1.788 4.328 4.328 0 0 1-.134-3.214l2.044-7.45-2.429-.68.508-1.845.622.173a1.725 1.725 0 0 0 1.476-.177c.439-.293.753-.738.88-1.25l.305-1.104 1.847.508-.854 3.048 2.904.803-.508 1.845-2.904-.812-2.094 7.498a3.307 3.307 0 0 0-.128 1.215c.038.373.199.722.458.993.336.319.751.544 1.203.651l.474.103.484.082-.457 1.648a6.124 6.124 0 0 1-.693-.074 5.52 5.52 0 0 1-.562-.173ZM439.297 49.921l5.777-18.416 1.827.567-2.483 7.891-.384-.23a4.352 4.352 0 0 1 2.228-1.496 4.843 4.843 0 0 1 2.8.08 5.306 5.306 0 0 1 2.295 1.41 4.948 4.948 0 0 1 1.201 2.294c.2.895.152 1.828-.139 2.698l-2.656 8.463-1.826-.577 2.442-7.753a4.633 4.633 0 0 0 .194-2.164 3.317 3.317 0 0 0-.809-1.647 3.426 3.426 0 0 0-1.596-1 3.672 3.672 0 0 0-1.899-.103 3.433 3.433 0 0 0-1.63.907 4.359 4.359 0 0 0-1.083 1.87l-2.432 7.754-1.827-.548ZM457.556 56.226a5.109 5.109 0 0 1-2.226-1.51 4.95 4.95 0 0 1-1.12-2.39 5.635 5.635 0 0 1 .298-2.856l2.881-8.125 1.806.636-2.809 7.889a4.043 4.043 0 0 0-.223 1.976 3.2 3.2 0 0 0 .75 1.627c.429.485.98.848 1.596 1.05.608.23 1.267.292 1.908.182a3.263 3.263 0 0 0 1.659-.848 4.565 4.565 0 0 0 1.132-1.83l2.719-7.673 1.806.646-4.568 12.88-1.806-.637.889-2.505.374.24a4.113 4.113 0 0 1-2.267 1.417 4.792 4.792 0 0 1-2.799-.169ZM473 62.015a6.192 6.192 0 0 1-2.658-1.909 5.165 5.165 0 0 1-1.136-2.915l.387-.145-1.13 2.849-1.776-.705 7.12-17.942 1.776.705-3.207 8.084-.084-.614a6.008 6.008 0 0 1 2.789-1.116 6.237 6.237 0 0 1 3.183.438 6.53 6.53 0 0 1 2.874 2.138 6.68 6.68 0 0 1 1.293 3.242 7.585 7.585 0 0 1-.533 3.743 7.507 7.507 0 0 1-2.17 3.07 6.569 6.569 0 0 1-3.168 1.488 6.39 6.39 0 0 1-3.56-.411Zm.607-1.815c.807.334 1.692.43 2.552.276a4.828 4.828 0 0 0 2.274-1.12 5.712 5.712 0 0 0 1.571-2.243c.352-.86.491-1.791.406-2.716a4.953 4.953 0 0 0-.903-2.36 4.505 4.505 0 0 0-2.037-1.547 4.626 4.626 0 0 0-2.571-.276 4.946 4.946 0 0 0-2.324 1.09 5.49 5.49 0 0 0-1.59 2.232 5.45 5.45 0 0 0-.377 2.716c.108.872.443 1.7.972 2.4a4.612 4.612 0 0 0 2.027 1.548ZM484.744 66.472l14.14-14.469 1.973.904-1.456 20.17-1.972-.885.422-4.94-7.753-3.489-3.421 3.554-1.933-.845Zm6.77-4.142 6.49 2.925.976-11.53.553.25-8.019 8.355ZM506.305 76.795a6.555 6.555 0 0 1-2.773-2.393 6.542 6.542 0 0 1-1.034-3.36 7.528 7.528 0 0 1 .829-3.671 7.416 7.416 0 0 1 2.376-2.89 6.49 6.49 0 0 1 3.266-1.231 6.648 6.648 0 0 1 3.597.718 6.188 6.188 0 0 1 1.968 1.468 6.716 6.716 0 0 1 1.242 1.987c.291.691.421 1.44.38 2.188l-1.98.045a4.195 4.195 0 0 0-.616-2.289 4.298 4.298 0 0 0-1.848-1.675 4.508 4.508 0 0 0-2.491-.453 4.742 4.742 0 0 0-2.352.922 5.51 5.51 0 0 0-1.738 2.142 5.57 5.57 0 0 0-.614 2.665 4.94 4.94 0 0 0 .715 2.438 4.464 4.464 0 0 0 1.887 1.685 4.232 4.232 0 0 0 2.452.423 4.298 4.298 0 0 0 2.214-.972l1.146 1.61a5.3 5.3 0 0 1-1.987 1.034 6.59 6.59 0 0 1-2.338.25 6.146 6.146 0 0 1-2.301-.64ZM519.045 83.06a3.696 3.696 0 0 1-2.022-2.25 4.338 4.338 0 0 1 .529-3.18l3.574-6.895-2.248-1.163.883-1.694.562.29a1.788 1.788 0 0 0 1.494.13 2.13 2.13 0 0 0 1.116-1.05l.522-.984 1.706.873-1.456 2.807 2.672 1.384-.874 1.704-2.682-1.384-3.574 6.894a3.37 3.37 0 0 0-.375 1.164c-.04.37.044.743.24 1.06.262.387.626.694 1.052.887l.444.201.454.182-.783 1.517a4.397 4.397 0 0 1-.671-.223 6.195 6.195 0 0 1-.563-.27ZM523.184 85.077l6.463-12.054 1.685.902-6.452 12.054-1.696-.902Zm7.647-14.28 1.325-2.472 1.695.903-1.324 2.472-1.696-.903ZM533.717 91.177a6.915 6.915 0 0 1-2.624-2.531 6.991 6.991 0 0 1-.964-3.458 7.27 7.27 0 0 1 1.016-3.66 7.234 7.234 0 0 1 2.594-2.74 6.84 6.84 0 0 1 3.411-.963 6.803 6.803 0 0 1 3.556.926 6.83 6.83 0 0 1 2.654 2.53 6.638 6.638 0 0 1 .964 3.419 7.251 7.251 0 0 1-1.017 3.64 7.244 7.244 0 0 1-2.643 2.78 6.932 6.932 0 0 1-3.431.963 6.792 6.792 0 0 1-3.516-.906Zm.932-1.674c.761.44 1.631.655 2.509.621a4.956 4.956 0 0 0 2.461-.792 5.517 5.517 0 0 0 1.875-1.964 5.459 5.459 0 0 0 .732-2.634 5.03 5.03 0 0 0-.635-2.486 4.668 4.668 0 0 0-1.827-1.814 4.589 4.589 0 0 0-2.51-.611 5.125 5.125 0 0 0-2.46.753 5.376 5.376 0 0 0-1.875 1.963 5.458 5.458 0 0 0-.732 2.664 5.034 5.034 0 0 0 .625 2.506 4.568 4.568 0 0 0 1.837 1.804v-.01ZM542.784 95.94l7.014-11.754 1.646 1.001-1.353 2.284-.315-.309a4.228 4.228 0 0 1 2.501-.97 4.775 4.775 0 0 1 2.707.712 5.175 5.175 0 0 1 1.906 1.903c.441.76.668 1.627.654 2.506a5.127 5.127 0 0 1-.751 2.595l-4.53 7.629-1.645-1.001 4.059-6.92c.397-.617.637-1.322.698-2.052a3.22 3.22 0 0 0-.393-1.783 3.675 3.675 0 0 0-1.345-1.354 3.707 3.707 0 0 0-1.847-.538 3.149 3.149 0 0 0-1.785.51 4.478 4.478 0 0 0-1.477 1.572l-4.149 6.999-1.595-1.03ZM559.08 106.155a6.043 6.043 0 0 1-2.406-2.638 5.613 5.613 0 0 1-.39-3.424l1.77.201a4.951 4.951 0 0 0 .347 2.554c.32.772.876 1.424 1.59 1.86.613.407 1.339.61 2.074.579a1.853 1.853 0 0 0 1.55-.888 1.529 1.529 0 0 0 .246-1.175 2.862 2.862 0 0 0-.457-1.051 7.423 7.423 0 0 0-.627-.786l-1.375-1.503a5.54 5.54 0 0 1-1.524-2.72 3.332 3.332 0 0 1 .473-2.35 3.58 3.58 0 0 1 1.624-1.451 3.962 3.962 0 0 1 2.13-.3 5.455 5.455 0 0 1 2.23.816 5.724 5.724 0 0 1 2.199 2.43 4.83 4.83 0 0 1 .373 3.186l-1.79-.211a4.058 4.058 0 0 0-.3-2.296 3.719 3.719 0 0 0-1.462-1.682 2.784 2.784 0 0 0-1.867-.469 1.888 1.888 0 0 0-1.372.89c-.226.329-.324.729-.276 1.125.049.357.182.697.389.992.162.245.342.477.539.696l1.58 1.761a5.541 5.541 0 0 1 1.406 2.651 3.456 3.456 0 0 1-.474 2.527 3.418 3.418 0 0 1-1.594 1.373 4.07 4.07 0 0 1-2.199.28 6.126 6.126 0 0 1-2.407-.977Z"
    fill="#000" />
  <path
    d="M130.299 606.907c-1.518 1.81-4.196 2.064-5.978.568-1.783-1.496-1.998-4.18-.481-5.99 1.518-1.81 4.196-2.065 5.978-.569 1.805 1.471 1.998 4.18.481 5.991Zm-14.797 11.088c6.355 5.335 15.371 5.395 21.884.671.044-.052.091-.057.135-.109a.842.842 0 0 0-.096-1.198l-5.476-4.598a.852.852 0 0 0-.924-.105c-3.226 1.538-7.132 1.209-10.025-1.22-3.927-3.296-4.403-9.238-1.06-13.226 3.342-3.987 9.272-4.551 13.199-1.255 2.867 2.407 3.896 6.221 2.944 9.667a.851.851 0 0 0 .264.892l5.476 4.598a.84.84 0 0 0 1.196-.114.306.306 0 0 0 .084-.153c3.516-7.239 1.889-16.113-4.466-21.448-7.518-6.311-18.804-5.238-25.204 2.396-6.377 7.608-5.448 18.891 2.069 25.202ZM14.836 454.439l8.521 25.822a3.417 3.417 0 0 0 4.321 2.179l29.636-9.654a3.386 3.386 0 0 0 2.184-4.299l-8.521-25.822a3.417 3.417 0 0 0-4.321-2.179L17.02 450.14a3.387 3.387 0 0 0-2.184 4.299Zm32.413-12.154a1.506 1.506 0 0 1 1.921.969l8.52 25.822a1.491 1.491 0 0 1-.97 1.91l-29.635 9.654a1.505 1.505 0 0 1-1.921-.968l-8.52-25.822a1.491 1.491 0 0 1 .97-1.91l29.635-9.655Zm5.224 23.11-4.95-2.872-2.278 5.226 7.228-2.354Zm-19.446-9.807c-.486.955-.944 2.599-.202 4.848.802 2.429 2.266 4.742 3.492 6.336l-10.3 3.355 1.188 3.599 15.63-5.092-2.005-2.136s-3.264-3.521-4.451-7.12c-.594-1.799.252-2.573 1.155-2.867l10.842-3.532-1.187-3.599-10.843 3.532c-.3-.002-2.288.646-3.32 2.676Zm-3.215 6.328-1.188-3.599c-2.432-1.001-4.596-1.193-6.763-.786l1.187 3.599c2.197-.317 4.391-.035 6.764.786Z"
    fill="#0066F5" />
  <path fill-rule="evenodd" clip-rule="evenodd"
    d="m24.205 310.597-7.327 10.705-13.23-.915 7.327-10.705 13.23.915Zm22.856-10.862-7.327 10.705-13.23-.915 7.327-10.705 13.23.915Zm-35.248 8.77 7.334-10.705 13.223.914-7.328 10.705-13.23-.914Zm7.422-11.929 13.223.914-5.895-11.619-13.237-.915 5.91 11.62ZM119.948 146.483c5.725-8.132 3.786-19.381-4.329-25.127-8.116-5.746-19.335-3.812-25.06 4.32-5.723 8.132-3.784 19.382 4.33 25.128 8.116 5.746 19.335 3.811 25.059-4.321Zm-8.171-11.87-12.067-2.835 3.492 5.387 8.575-2.552ZM97.82 129.08l18.202 4.105c.218.057.403.135.504.206.62.439.696 1.245.292 1.819-.202.287-.469.429-.93.56l-11.477 3.261 4.574 7.054-1.549 2.2-10.912-17.364a1.2 1.2 0 0 1 .036-1.373c.286-.406.736-.588 1.26-.468ZM371.379 7.469c-10.208-.558-18.93 7.239-19.489 17.422-.448 8.147 4.47 15.339 11.675 18.184.909.22 1.28-.328 1.308-.825.024-.442.076-1.596.149-3.136-5.199.828-6.091-2.807-6.091-2.807-.723-2.173-1.905-2.805-1.905-2.805-1.616-1.234.186-1.113.186-1.113 1.841.237 2.731 2.056 2.731 2.056 1.49 2.907 4.212 2.238 5.293 1.82.235-1.178.756-1.967 1.303-2.402-4.08-.688-8.303-2.508-7.916-9.568.111-2.014.916-3.616 2.178-4.84-.168-.475-.7-2.388.449-4.868 0 0 1.581-.413 4.978 2.167a17.999 17.999 0 0 1 4.662-.37 17.58 17.58 0 0 1 4.593.876c3.659-2.195 5.186-1.612 5.186-1.612.87 2.59.132 4.433-.087 4.887 1.109 1.354 1.733 3.034 1.623 5.048-.389 7.083-4.796 8.397-8.939 8.636.627.602 1.166 1.766 1.072 3.486-.136 2.467-.267 4.446-.301 5.056-.027.498.271 1.082 1.222.953 7.473-2.044 13.138-8.657 13.585-16.793.56-10.194-7.256-18.895-17.465-19.452Z"
    fill="#0066F5" />
  <path fill-rule="evenodd" clip-rule="evenodd"
    d="M237.979 51.941c11.872 6.36 12.908-9.537 9.293-17.068-4.275-8.905-15.686-9.566-20.857-7.092-8.3 3.971-12.922 14.615-8.43 24.004 4.992 10.436 16.817 11.881 23.961 8.464-1.728.54-7.667 1.963-13.678-10.415-4.064-8.373-2.882-13.06 2.15-13.654.114-.01 5.673-.403 8.556 5.625 2.871 6.002-.995 10.136-.995 10.136Z"
    fill="url(#a)" />
  <path fill-rule="evenodd" clip-rule="evenodd"
    d="M230.436 36.167c-5.531.635-9.474 7.332-5.723 15.172 6.123 12.802 16.162 9.426 17.311 8.876 8.3-3.971 12.922-14.615 8.431-24.004-4.992-10.436-16.818-11.881-23.961-8.463 1.847-1.221 11.688-2.96 17.369 8.915 3.705 7.745-.764 15.064-5.844 15.28-.114.01-5.672.403-8.556-5.625-2.871-6.002.973-10.151.973-10.151Z"
    fill="url(#b)" />
  <defs>
    <linearGradient id="a" x1="217.302" y1="38.021" x2="251.132" y2="49.956" gradientUnits="userSpaceOnUse">
      <stop stop-color="#4D4DFF" />
      <stop offset="1" stop-color="#fff" />
    </linearGradient>
    <linearGradient id="b" x1="251.141" y1="49.961" x2="217.313" y2="38.028" gradientUnits="userSpaceOnUse">
      <stop stop-color="#4D4DFF" />
      <stop offset="1" stop-color="#fff" />
    </linearGradient>
  </defs>
</svg>
